<?xml version="1.0" encoding="UTF-8"?>
<svg id="Layer_1" data-name="Layer 1" xmlns="http://www.w3.org/2000/svg" xmlns:xlink="http://www.w3.org/1999/xlink" viewBox="0 0 1000 272.07">
  <defs>
    <style>
      .cls-1 {
        fill: url(#linear-gradient-4);
      }

      .cls-2 {
        fill: url(#linear-gradient-3);
      }

      .cls-3 {
        fill: url(#linear-gradient-2);
      }

      .cls-4 {
        fill: #512c80;
      }

      .cls-5 {
        fill: url(#linear-gradient);
      }

      .cls-6 {
        fill-rule: evenodd;
      }

      .cls-7 {
        fill: #d97439;
      }

      .cls-8 {
        fill: #959595;
      }

      .cls-9 {
        fill: #333;
      }
    </style>
    <linearGradient id="linear-gradient" x1="979.68" y1="179.86" x2="979.68" y2="127.7" gradientUnits="userSpaceOnUse">
      <stop offset="0" stop-color="#d97439"/>
      <stop offset=".21" stop-color="#e0883c"/>
      <stop offset=".48" stop-color="#e79d3f"/>
      <stop offset=".74" stop-color="#eba941"/>
      <stop offset="1" stop-color="#edae42"/>
    </linearGradient>
    <linearGradient id="linear-gradient-2" x1="976.7" x2="976.7" y2="139.17" xlink:href="#linear-gradient"/>
    <linearGradient id="linear-gradient-3" x1="982.65" x2="982.65" y2="145.48" xlink:href="#linear-gradient"/>
    <linearGradient id="linear-gradient-4" x1="18.06" y1="70.61" x2="184.82" y2="70.61" gradientUnits="userSpaceOnUse">
      <stop offset=".44" stop-color="#512c80"/>
      <stop offset=".65" stop-color="#921985"/>
      <stop offset=".89" stop-color="#d2078a"/>
      <stop offset="1" stop-color="#ec008c"/>
    </linearGradient>
  </defs>
  <rect class="cls-8" x="620.02" y="3.67" width=".91" height="261.15"/>
  <g>
    <path d="M689.19,132.83c.03-.09.07-.18.11-.27.04-.09.08-.17.13-.25l4.86-8.41c.05-.07.09-.12.14-.14.05-.02.11-.03.19-.03h.62v12.1h-.79v-10.31c0-.15,0-.31.03-.47l-4.87,8.46c-.08.15-.2.22-.35.22h-.14c-.15,0-.26-.07-.35-.22l-5-8.47c.02.17.03.33.03.48v10.31h-.78v-12.1h.61c.08,0,.15,0,.2.03.05.02.1.06.14.14l5,8.41c.09.16.16.33.23.51Z"/>
    <path d="M703.88,135.84c-.17,0-.28-.08-.32-.24l-.12-1.09c-.24.23-.48.43-.71.62-.24.18-.48.34-.74.46-.26.13-.53.22-.83.29-.3.07-.62.1-.98.1-.3,0-.59-.04-.87-.13s-.53-.22-.74-.39c-.22-.18-.39-.4-.52-.68-.13-.28-.2-.61-.2-1,0-.36.1-.69.31-1,.21-.31.54-.58.98-.8.45-.23,1.02-.41,1.72-.55.7-.14,1.55-.22,2.53-.24v-.89c0-.79-.17-1.39-.52-1.82-.35-.42-.86-.64-1.54-.64-.42,0-.78.06-1.07.17-.29.11-.54.24-.75.38-.2.14-.37.26-.5.38-.13.11-.24.17-.32.17-.12,0-.2-.05-.26-.15l-.15-.25c.45-.44.93-.78,1.43-1.01.5-.23,1.07-.34,1.71-.34.47,0,.88.07,1.22.22.35.15.64.35.87.62.23.27.4.6.52.98.12.38.17.81.17,1.29v5.54h-.33ZM700.38,135.39c.34,0,.65-.04.93-.11.28-.07.55-.17.79-.3s.47-.28.68-.46c.21-.18.42-.37.62-.57v-2.21c-.83.02-1.54.08-2.14.18-.6.1-1.09.24-1.48.41-.39.17-.67.38-.86.61s-.28.51-.28.81c0,.29.05.53.14.74s.22.38.38.51c.16.13.34.23.55.3.21.06.43.09.66.09Z"/>
    <path d="M708.11,124.4c0,.1-.02.2-.07.29-.04.09-.1.17-.17.24-.07.07-.15.12-.25.16-.09.04-.19.06-.3.06s-.2-.02-.3-.06c-.09-.04-.18-.09-.25-.16s-.13-.15-.17-.24c-.04-.09-.06-.18-.06-.29s.02-.2.06-.3c.04-.09.1-.18.17-.24.07-.07.15-.12.25-.16.09-.04.19-.06.3-.06s.2.02.3.06c.09.04.18.09.25.16.07.07.13.15.17.24.04.09.07.19.07.3ZM707.74,127.33v8.51h-.83v-8.51h.83Z"/>
    <path d="M710.65,135.84v-8.51h.46c.15,0,.24.07.26.21l.08,1.28c.4-.49.86-.89,1.39-1.18.53-.3,1.12-.45,1.76-.45.48,0,.9.07,1.26.22.36.15.67.36.91.64.24.28.42.62.54,1.01.12.39.18.84.18,1.33v5.44h-.83v-5.44c0-.8-.19-1.42-.56-1.88-.37-.45-.94-.68-1.71-.68-.57,0-1.1.14-1.59.43-.49.29-.93.68-1.31,1.18v6.38h-.83Z"/>
    <path d="M722.31,135.98c-.59,0-1.05-.16-1.37-.48-.33-.32-.49-.81-.49-1.48v-5.82h-1.25c-.06,0-.12-.02-.16-.05-.04-.03-.06-.08-.06-.15v-.32l1.49-.1.21-3.04c0-.05.03-.1.06-.14.04-.04.09-.06.15-.06h.39v3.25h2.74v.61h-2.74v5.77c0,.23.03.43.09.6.06.17.15.31.25.41.11.11.23.19.38.24.15.05.3.08.47.08.21,0,.39-.03.54-.09.15-.06.28-.13.39-.2.11-.07.2-.14.27-.2.07-.06.13-.09.17-.09.05,0,.09.03.14.09l.23.36c-.22.24-.5.43-.84.58-.34.15-.7.22-1.06.22Z"/>
    <path d="M731.56,135.84c-.17,0-.28-.08-.32-.24l-.12-1.09c-.24.23-.48.43-.71.62-.24.18-.48.34-.74.46-.26.13-.53.22-.83.29-.3.07-.62.1-.98.1-.3,0-.59-.04-.87-.13s-.53-.22-.74-.39c-.22-.18-.39-.4-.52-.68-.13-.28-.2-.61-.2-1,0-.36.1-.69.31-1,.21-.31.54-.58.98-.8.45-.23,1.02-.41,1.72-.55.7-.14,1.55-.22,2.53-.24v-.89c0-.79-.17-1.39-.52-1.82-.35-.42-.86-.64-1.54-.64-.42,0-.78.06-1.07.17-.29.11-.54.24-.75.38-.2.14-.37.26-.5.38-.13.11-.24.17-.32.17-.12,0-.2-.05-.26-.15l-.15-.25c.45-.44.93-.78,1.43-1.01.5-.23,1.07-.34,1.71-.34.47,0,.88.07,1.22.22.35.15.64.35.87.62.23.27.4.6.52.98.12.38.17.81.17,1.29v5.54h-.33ZM728.06,135.39c.34,0,.65-.04.93-.11.28-.07.55-.17.79-.3s.47-.28.68-.46c.21-.18.42-.37.62-.57v-2.21c-.83.02-1.54.08-2.14.18-.6.1-1.09.24-1.48.41-.39.17-.67.38-.86.61s-.28.51-.28.81c0,.29.05.53.14.74s.22.38.38.51c.16.13.34.23.55.3.21.06.43.09.66.09Z"/>
    <path d="M735.78,124.4c0,.1-.02.2-.07.29-.04.09-.1.17-.17.24-.07.07-.15.12-.25.16-.09.04-.19.06-.3.06s-.2-.02-.3-.06c-.09-.04-.18-.09-.25-.16s-.13-.15-.17-.24c-.04-.09-.06-.18-.06-.29s.02-.2.06-.3c.04-.09.1-.18.17-.24.07-.07.15-.12.25-.16.09-.04.19-.06.3-.06s.2.02.3.06c.09.04.18.09.25.16.07.07.13.15.17.24.04.09.07.19.07.3ZM735.42,127.33v8.51h-.83v-8.51h.83Z"/>
    <path d="M738.32,135.84v-8.51h.46c.15,0,.24.07.26.21l.08,1.28c.4-.49.86-.89,1.39-1.18.53-.3,1.12-.45,1.76-.45.48,0,.9.07,1.26.22.36.15.67.36.91.64.24.28.42.62.54,1.01.12.39.18.84.18,1.33v5.44h-.83v-5.44c0-.8-.19-1.42-.56-1.88-.37-.45-.94-.68-1.71-.68-.57,0-1.1.14-1.59.43-.49.29-.93.68-1.31,1.18v6.38h-.83Z"/>
    <path d="M750.89,127.19c.49,0,.94.08,1.36.25.42.17.78.41,1.09.72s.55.71.72,1.17c.17.46.26.99.26,1.59,0,.13-.02.21-.06.26-.04.05-.1.07-.18.07h-6.28v.16c0,.64.08,1.2.23,1.68.15.48.37.89.65,1.22.28.33.62.57,1.01.74s.84.25,1.33.25c.44,0,.82-.05,1.14-.14.32-.09.59-.2.81-.32.22-.12.39-.22.52-.32.13-.09.22-.14.28-.14.08,0,.13.03.18.09l.23.27c-.14.17-.33.33-.56.48-.23.15-.49.28-.77.38-.28.11-.59.19-.91.25-.32.06-.65.09-.98.09-.59,0-1.14-.1-1.63-.3-.49-.2-.91-.5-1.26-.89-.35-.39-.62-.86-.81-1.42s-.29-1.2-.29-1.93c0-.61.09-1.17.27-1.69.18-.52.43-.96.77-1.33.34-.37.75-.67,1.23-.88.49-.21,1.04-.32,1.66-.32ZM750.91,127.8c-.45,0-.85.07-1.21.21-.36.14-.66.33-.92.59-.26.26-.47.56-.63.92-.16.36-.27.76-.32,1.21h5.73c0-.46-.06-.86-.19-1.23-.13-.36-.31-.67-.54-.92-.23-.25-.51-.44-.84-.58-.33-.13-.69-.2-1.08-.2Z"/>
    <path d="M762.55,135.84c-.14,0-.23-.07-.25-.22l-.09-1.34c-.39.51-.84.92-1.35,1.22-.52.3-1.1.45-1.74.45-1.07,0-1.9-.36-2.5-1.09-.6-.72-.9-1.81-.9-3.26,0-.62.08-1.2.25-1.74.17-.54.41-1.01.74-1.4.32-.4.72-.71,1.19-.94.47-.23,1.01-.34,1.63-.34s1.1.11,1.53.32c.43.21.81.53,1.12.94v-5.05h.83v12.44h-.46ZM759.36,135.29c.58,0,1.1-.15,1.57-.44.47-.29.89-.7,1.25-1.21v-4.49c-.34-.48-.71-.83-1.12-1.03s-.87-.3-1.38-.3-.96.09-1.35.27c-.39.18-.71.44-.97.77s-.46.73-.59,1.2-.2.98-.2,1.54c0,1.27.24,2.2.72,2.79.48.6,1.17.89,2.06.89Z"/>
    <path d="M769.05,135.84v-12.44h.83v5.42c.39-.5.84-.9,1.35-1.19.51-.29,1.08-.44,1.71-.44,1.07,0,1.9.36,2.5,1.08.6.72.9,1.81.9,3.25,0,.62-.08,1.2-.25,1.74-.17.54-.41,1.01-.74,1.4-.32.4-.72.71-1.19.94-.47.23-1.01.34-1.63.34s-1.13-.12-1.57-.35c-.44-.23-.81-.57-1.13-1.02l-.05,1.04c-.02.14-.1.21-.23.21h-.5ZM772.7,127.84c-.58,0-1.1.15-1.57.44-.47.29-.89.7-1.25,1.21v4.49c.33.49.7.83,1.1,1.03.4.2.87.3,1.39.3s.96-.09,1.35-.27c.39-.18.71-.44.97-.77.26-.33.46-.73.59-1.2.13-.46.2-.98.2-1.54,0-1.27-.24-2.2-.72-2.79-.48-.6-1.17-.89-2.06-.89Z"/>
    <path d="M780.08,138.58c-.04.08-.08.15-.14.2-.06.05-.14.08-.24.08h-.59l1.53-3.33-3.68-8.19h.69c.09,0,.16.02.21.06.05.04.09.09.11.14l2.93,6.62c.04.09.07.17.09.26.03.09.05.18.07.27.03-.09.06-.18.09-.27.03-.09.07-.18.1-.26l2.9-6.62c.03-.06.07-.11.12-.15.05-.04.11-.06.18-.06h.64l-5,11.25Z"/>
  </g>
  <g>
    <path d="M689.09,16.82c.43,0,.81-.02,1.16-.06.35-.04.68-.11.98-.19.3-.09.59-.19.86-.31.27-.12.54-.26.82-.41v-3.26h-2.38c-.06,0-.12-.02-.16-.06s-.07-.09-.07-.14v-.48h3.42v4.3c-.31.21-.63.4-.96.56-.33.17-.69.3-1.07.41-.38.11-.79.2-1.22.26s-.92.09-1.43.09c-.89,0-1.71-.15-2.45-.44-.74-.29-1.37-.71-1.9-1.25-.53-.54-.94-1.19-1.23-1.95-.29-.76-.44-1.61-.44-2.55s.15-1.78.44-2.54.71-1.41,1.24-1.95c.54-.54,1.19-.95,1.96-1.25.77-.29,1.63-.44,2.58-.44.47,0,.91.03,1.31.09.4.06.77.16,1.12.28.34.12.66.27.96.45.3.18.58.39.86.62l-.24.38c-.05.09-.13.13-.22.13-.05,0-.1-.01-.15-.03-.09-.03-.21-.11-.38-.24-.17-.13-.39-.26-.67-.39-.28-.14-.64-.26-1.06-.37-.43-.11-.94-.16-1.55-.16-.8,0-1.53.13-2.18.38s-1.2.61-1.66,1.08c-.46.47-.81,1.04-1.06,1.71-.25.67-.37,1.43-.37,2.27s.13,1.62.38,2.3c.25.68.6,1.25,1.05,1.72.45.47.99.83,1.63,1.08s1.33.38,2.1.38Z"/>
    <path d="M699.59,8.75c.62,0,1.18.1,1.68.31.49.21.91.5,1.25.89.34.38.6.84.77,1.38.18.54.27,1.14.27,1.81s-.09,1.27-.27,1.8c-.18.54-.44.99-.77,1.38-.34.38-.75.68-1.25.88-.49.21-1.05.31-1.68.31s-1.18-.1-1.68-.31c-.49-.21-.91-.5-1.25-.88-.34-.38-.6-.84-.78-1.38-.18-.54-.27-1.14-.27-1.8s.09-1.27.27-1.81c.18-.54.44-1,.78-1.38.34-.38.76-.68,1.25-.89.49-.21,1.05-.31,1.68-.31ZM699.59,16.87c.52,0,.97-.09,1.36-.26.39-.17.71-.42.97-.75.26-.33.45-.72.58-1.18.13-.46.19-.97.19-1.54s-.06-1.08-.19-1.54c-.13-.46-.32-.86-.58-1.18-.26-.33-.58-.58-.97-.76-.39-.18-.84-.27-1.36-.27s-.97.09-1.36.27-.71.43-.97.76-.45.72-.59,1.18c-.13.46-.2.97-.2,1.54s.07,1.08.2,1.54c.13.46.33.85.59,1.18s.58.57.97.75.84.26,1.36.26Z"/>
    <path d="M706.64,4.95v12.44h-.83V4.95h.83Z"/>
    <path d="M715.72,17.4c-.14,0-.23-.07-.25-.22l-.09-1.34c-.39.51-.84.92-1.35,1.22-.52.3-1.1.45-1.74.45-1.07,0-1.9-.36-2.5-1.09-.6-.72-.9-1.81-.9-3.26,0-.62.08-1.2.25-1.74.17-.54.41-1.01.74-1.4.32-.4.72-.71,1.19-.94.47-.23,1.01-.34,1.63-.34s1.1.11,1.53.32c.43.21.81.53,1.12.94v-5.05h.83v12.44h-.46ZM712.52,16.85c.58,0,1.1-.15,1.57-.44.47-.29.89-.7,1.25-1.21v-4.49c-.34-.48-.71-.83-1.12-1.03s-.87-.3-1.38-.3-.96.09-1.35.27c-.39.18-.71.44-.97.77s-.46.73-.59,1.2-.2.98-.2,1.54c0,1.27.24,2.2.72,2.79.48.6,1.17.89,2.06.89Z"/>
    <path d="M728.54,6.77c-.05.1-.13.15-.23.15-.08,0-.17-.05-.29-.16-.12-.11-.28-.22-.49-.35-.2-.13-.46-.25-.77-.35s-.69-.16-1.14-.16-.85.06-1.19.19c-.34.13-.63.3-.86.51-.23.22-.41.47-.53.75-.12.29-.18.58-.18.9,0,.41.09.75.27,1.02.18.27.41.5.71.68.29.19.62.35.99.47.37.13.75.26,1.14.38s.77.26,1.14.41c.37.15.7.34.99.57.29.23.53.51.71.84.18.33.27.75.27,1.24s-.09.99-.27,1.43c-.18.45-.44.84-.77,1.17-.34.33-.75.59-1.24.78-.49.19-1.05.29-1.68.29-.82,0-1.52-.14-2.11-.42-.59-.28-1.11-.67-1.55-1.16l.24-.38c.07-.09.15-.13.25-.13.05,0,.12.03.2.1.08.07.18.15.3.25.12.1.26.21.42.33.16.12.35.23.57.33s.46.18.74.25c.28.07.6.1.96.1.49,0,.93-.07,1.31-.22.39-.15.71-.34.98-.59.27-.25.47-.55.61-.89.14-.34.21-.71.21-1.11,0-.43-.09-.78-.27-1.06s-.41-.51-.71-.69c-.29-.19-.62-.34-.99-.47s-.75-.25-1.14-.37c-.39-.12-.77-.25-1.14-.4-.37-.15-.7-.34-.99-.57-.29-.23-.53-.52-.71-.86-.18-.34-.27-.78-.27-1.3,0-.4.08-.79.24-1.17s.39-.71.69-1c.3-.29.68-.52,1.13-.69.45-.17.96-.26,1.53-.26.64,0,1.22.1,1.73.3.51.2.98.5,1.4.91l-.21.39Z"/>
    <path d="M731.09,20.41v-11.52h.46c.08,0,.14.02.18.05.05.03.07.09.08.17l.08,1.32c.39-.51.84-.92,1.35-1.22s1.09-.45,1.74-.45c1.07,0,1.91.36,2.5,1.09.59.72.89,1.81.89,3.26,0,.62-.08,1.2-.25,1.74-.17.54-.41,1.01-.73,1.4-.32.4-.72.71-1.19.94-.47.23-1.01.34-1.62.34s-1.11-.11-1.54-.32c-.43-.21-.81-.52-1.12-.94v4.16h-.83ZM734.74,9.4c-.58,0-1.1.15-1.57.44-.47.29-.89.7-1.25,1.23v4.46c.33.49.7.84,1.11,1.03.41.2.87.3,1.39.3s.96-.09,1.35-.27.71-.44.97-.77.46-.73.59-1.2c.13-.46.2-.98.2-1.54,0-1.27-.24-2.2-.71-2.79-.48-.6-1.16-.89-2.06-.89Z"/>
    <path d="M743.6,8.75c.62,0,1.18.1,1.68.31.49.21.91.5,1.25.89.34.38.6.84.77,1.38.18.54.27,1.14.27,1.81s-.09,1.27-.27,1.8c-.18.54-.44.99-.77,1.38-.34.38-.75.68-1.25.88-.49.21-1.05.31-1.68.31s-1.18-.1-1.68-.31c-.49-.21-.91-.5-1.25-.88-.34-.38-.6-.84-.78-1.38-.18-.54-.27-1.14-.27-1.8s.09-1.27.27-1.81c.18-.54.44-1,.78-1.38.34-.38.76-.68,1.25-.89.49-.21,1.05-.31,1.68-.31ZM743.6,16.87c.52,0,.97-.09,1.36-.26.39-.17.71-.42.97-.75.26-.33.45-.72.58-1.18.13-.46.19-.97.19-1.54s-.06-1.08-.19-1.54c-.13-.46-.32-.86-.58-1.18-.26-.33-.58-.58-.97-.76-.39-.18-.84-.27-1.36-.27s-.97.09-1.36.27-.71.43-.97.76-.45.72-.59,1.18c-.13.46-.2.97-.2,1.54s.07,1.08.2,1.54c.13.46.33.85.59,1.18s.58.57.97.75.84.26,1.36.26Z"/>
    <path d="M749.57,17.4v-8.51h.46c.15,0,.24.07.26.21l.08,1.28c.4-.49.86-.89,1.39-1.18.53-.3,1.12-.45,1.76-.45.48,0,.9.07,1.26.22.36.15.67.36.91.64.24.28.42.62.54,1.01.12.39.18.84.18,1.33v5.44h-.83v-5.44c0-.8-.19-1.42-.56-1.88-.37-.45-.94-.68-1.71-.68-.57,0-1.1.14-1.59.43-.49.29-.93.68-1.31,1.18v6.38h-.83Z"/>
    <path d="M763.66,9.95c-.04.08-.1.12-.19.12-.06,0-.15-.04-.25-.11-.1-.07-.24-.15-.4-.24-.17-.09-.37-.17-.61-.24-.24-.07-.54-.11-.89-.11-.31,0-.6.04-.86.13-.26.09-.48.21-.66.35-.18.15-.33.32-.43.52s-.15.4-.15.62c0,.27.07.49.21.67.14.18.32.33.55.45.23.13.49.23.77.32s.58.18.89.27c.3.09.6.19.89.3.29.11.55.25.77.41.23.17.41.37.55.61.14.24.21.53.21.87,0,.37-.07.72-.21,1.03-.14.32-.34.6-.6.83-.26.23-.58.42-.96.56-.38.14-.81.21-1.29.21-.61,0-1.14-.1-1.58-.29-.44-.19-.84-.44-1.19-.75l.2-.29s.06-.08.1-.1.08-.03.15-.03c.08,0,.17.05.28.14.11.09.26.19.43.3s.4.2.66.3c.27.09.59.14.98.14.37,0,.69-.05.97-.15.28-.1.51-.23.7-.41.19-.17.33-.37.42-.6.1-.23.14-.47.14-.73,0-.29-.07-.52-.21-.71-.14-.19-.32-.35-.55-.48-.23-.13-.49-.24-.77-.33-.29-.09-.59-.18-.89-.27s-.6-.19-.89-.3c-.29-.11-.55-.25-.77-.41s-.41-.37-.55-.6c-.14-.24-.21-.53-.21-.89,0-.3.07-.59.2-.87.13-.28.33-.52.57-.74.25-.21.55-.38.91-.5.36-.13.76-.19,1.2-.19.53,0,1,.08,1.41.23.41.15.79.38,1.13.69l-.18.28Z"/>
    <path d="M769.53,8.75c.62,0,1.18.1,1.68.31.49.21.91.5,1.25.89.34.38.6.84.77,1.38.18.54.27,1.14.27,1.81s-.09,1.27-.27,1.8c-.18.54-.44.99-.77,1.38-.34.38-.75.68-1.25.88-.49.21-1.05.31-1.68.31s-1.18-.1-1.68-.31c-.49-.21-.91-.5-1.25-.88-.34-.38-.6-.84-.78-1.38-.18-.54-.27-1.14-.27-1.8s.09-1.27.27-1.81c.18-.54.44-1,.78-1.38.34-.38.76-.68,1.25-.89.49-.21,1.05-.31,1.68-.31ZM769.53,16.87c.52,0,.97-.09,1.36-.26.39-.17.71-.42.97-.75.26-.33.45-.72.58-1.18.13-.46.19-.97.19-1.54s-.06-1.08-.19-1.54c-.13-.46-.32-.86-.58-1.18-.26-.33-.58-.58-.97-.76-.39-.18-.84-.27-1.36-.27s-.97.09-1.36.27-.71.43-.97.76-.45.72-.59,1.18c-.13.46-.2.97-.2,1.54s.07,1.08.2,1.54c.13.46.33.85.59,1.18s.58.57.97.75.84.26,1.36.26Z"/>
    <path d="M775.5,17.4v-8.51h.44c.1,0,.17.02.21.06.04.04.07.11.07.21l.07,1.8c.28-.69.65-1.23,1.12-1.62.47-.39,1.04-.59,1.72-.59.26,0,.5.03.73.08.22.05.43.13.63.23l-.11.56c-.02.09-.08.14-.18.14-.03,0-.08-.01-.15-.03-.06-.02-.14-.05-.24-.08-.1-.03-.21-.05-.35-.08-.14-.02-.3-.03-.48-.03-.66,0-1.2.2-1.62.6-.42.4-.77.97-1.03,1.73v5.53h-.83Z"/>
  </g>
  <g>
    <path class="cls-7" d="M683.01,178.84v-22.83c0-.32.13-.57.39-.75.26-.18.56-.27.9-.27h11.96c.32,0,.56.12.73.37.17.25.25.54.25.88,0,.39-.08.7-.25.95-.17.25-.41.37-.73.37h-10.39v8.63h5.3c.32,0,.56.12.73.36.17.24.25.53.25.87,0,.29-.08.56-.25.8-.17.24-.41.36-.73.36h-5.3v10.26c0,.32-.14.56-.42.73-.28.17-.62.25-1,.25s-.72-.08-1-.25c-.28-.17-.42-.41-.42-.73Z"/>
    <path class="cls-7" d="M701.59,178.8v-22.83c0-.32.14-.56.42-.73.28-.17.62-.25,1-.25s.72.08,1,.25c.28.17.42.41.42.73v22.83c0,.32-.14.57-.42.75-.28.18-.62.27-1,.27s-.72-.09-1-.27c-.28-.18-.42-.43-.42-.75Z"/>
    <path class="cls-7" d="M710.97,178.8v-22.83c0-.66.48-.98,1.43-.98.48,0,.88.14,1.21.42.33.28.65.74.97,1.38l8.46,16.54v-17.36c0-.32.14-.56.42-.73.28-.17.62-.25,1-.25s.72.08,1,.25c.28.17.42.41.42.73v22.83c0,.32-.14.57-.42.75-.28.18-.62.27-1,.27-.72,0-1.32-.43-1.8-1.29l-8.83-17.09v17.36c0,.32-.14.57-.42.75-.28.18-.62.27-1,.27s-.72-.09-1-.27c-.28-.18-.42-.43-.42-.75Z"/>
    <path class="cls-7" d="M732.4,178.8v-22.83c0-.66.48-.98,1.43-.98.48,0,.88.14,1.21.42.33.28.65.74.97,1.38l8.46,16.54v-17.36c0-.32.14-.56.42-.73.28-.17.62-.25,1-.25s.72.08,1,.25c.28.17.42.41.42.73v22.83c0,.32-.14.57-.42.75-.28.18-.62.27-1,.27-.72,0-1.32-.43-1.8-1.29l-8.83-17.09v17.36c0,.32-.14.57-.42.75-.28.18-.62.27-1,.27s-.72-.09-1-.27c-.28-.18-.42-.43-.42-.75Z"/>
    <path class="cls-7" d="M753.6,172.62v-10.22c0-2.56.66-4.43,1.99-5.62,1.33-1.19,3.1-1.78,5.32-1.78s4,.59,5.33,1.78c1.34,1.19,2,3.06,2,5.62v10.22c0,2.56-.67,4.43-2,5.62-1.34,1.19-3.11,1.78-5.33,1.78s-3.99-.59-5.32-1.78c-1.32-1.19-1.99-3.06-1.99-5.62ZM756.45,172.62c0,3.22,1.48,4.82,4.45,4.82,1.43,0,2.53-.4,3.31-1.21.78-.8,1.17-2.01,1.17-3.62v-10.22c0-1.61-.39-2.81-1.17-3.62-.78-.8-1.88-1.21-3.31-1.21-2.97,0-4.45,1.61-4.45,4.82v10.22Z"/>
    <path class="cls-7" d="M772.69,156.18c0-.34.19-.62.56-.85.37-.23.76-.34,1.17-.34.57,0,.92.22,1.05.65l5.98,20.18,5.94-20.18c.16-.43.49-.65,1-.65.42,0,.82.12,1.18.37.37.25.55.53.55.84,0,.02,0,.06-.02.1s-.02.09-.02.13l-6.9,22.59c-.24.67-.83,1-1.77,1s-1.51-.33-1.71-.99l-6.96-22.59c-.05-.14-.07-.23-.07-.27Z"/>
    <path class="cls-7" d="M791.74,178.63s.02-.14.07-.27l6.95-22.58c.2-.66.78-.99,1.73-.99s1.53.33,1.73,1l6.98,22.66s0,.08.02.13c.01.04.02.07.02.1,0,.3-.19.56-.56.8s-.78.35-1.21.35c-.54,0-.88-.21-1.02-.64l-1.49-5.03h-8.99l-1.49,5.01c-.13.44-.48.66-1.03.66-.4,0-.78-.11-1.15-.34-.37-.23-.55-.51-.55-.85ZM796.68,171.77h7.58l-3.78-12.8-3.8,12.8Z"/>
    <path class="cls-7" d="M810.05,156.25c0-.33.09-.62.27-.88.18-.25.43-.38.75-.38h13.83c.32,0,.57.13.75.38.18.25.27.55.27.88,0,.35-.09.66-.27.93-.18.26-.43.4-.75.4h-5.47v21.23c0,.32-.14.57-.42.75-.28.18-.62.27-1,.27s-.72-.09-1-.27c-.28-.18-.42-.43-.42-.75v-21.23h-5.5c-.32,0-.57-.13-.75-.38-.18-.25-.27-.57-.27-.94Z"/>
    <path class="cls-7" d="M830.5,178.8v-22.83c0-.32.14-.56.42-.73.28-.17.62-.25,1-.25s.72.08,1,.25c.28.17.42.41.42.73v22.83c0,.32-.14.57-.42.75-.28.18-.62.27-1,.27s-.72-.09-1-.27c-.28-.18-.42-.43-.42-.75Z"/>
    <path class="cls-7" d="M839.64,172.62v-10.22c0-2.56.66-4.43,1.99-5.62,1.33-1.19,3.1-1.78,5.32-1.78s4,.59,5.33,1.78c1.34,1.19,2,3.06,2,5.62v10.22c0,2.56-.67,4.43-2,5.62-1.34,1.19-3.11,1.78-5.33,1.78s-3.99-.59-5.32-1.78c-1.32-1.19-1.99-3.06-1.99-5.62ZM842.49,172.62c0,3.22,1.48,4.82,4.45,4.82,1.43,0,2.53-.4,3.31-1.21.78-.8,1.17-2.01,1.17-3.62v-10.22c0-1.61-.39-2.81-1.17-3.62-.78-.8-1.88-1.21-3.31-1.21-2.97,0-4.45,1.61-4.45,4.82v10.22Z"/>
    <path class="cls-7" d="M860.56,178.8v-22.83c0-.66.48-.98,1.43-.98.48,0,.88.14,1.21.42.33.28.65.74.97,1.38l8.46,16.54v-17.36c0-.32.14-.56.42-.73.28-.17.62-.25,1-.25s.72.08,1,.25c.28.17.42.41.42.73v22.83c0,.32-.14.57-.42.75-.28.18-.62.27-1,.27-.72,0-1.32-.43-1.8-1.29l-8.83-17.09v17.36c0,.32-.14.57-.42.75-.28.18-.62.27-1,.27s-.72-.09-1-.27c-.28-.18-.42-.43-.42-.75Z"/>
    <path class="cls-9" d="M882,178.8v-22.83c0-.32.14-.56.42-.73.28-.17.62-.25,1-.25s.72.08,1,.25c.28.17.42.41.42.73v21.26h9.27c.29,0,.52.13.68.39.16.26.24.56.24.9s-.08.64-.24.9c-.16.26-.39.39-.68.39h-10.84c-.34,0-.64-.09-.9-.27-.26-.18-.39-.43-.39-.75Z"/>
    <path class="cls-9" d="M897.76,178.63s.02-.14.07-.27l6.95-22.58c.2-.66.78-.99,1.73-.99s1.53.33,1.73,1l6.98,22.66s0,.08.02.13c.01.04.02.07.02.1,0,.3-.19.56-.56.8-.37.23-.78.35-1.21.35-.54,0-.88-.21-1.02-.64l-1.49-5.03h-8.99l-1.49,5.01c-.13.44-.48.66-1.03.66-.4,0-.78-.11-1.15-.34-.37-.23-.55-.51-.55-.85ZM902.69,171.77h7.58l-3.78-12.8-3.8,12.8Z"/>
    <path class="cls-9" d="M919.97,178.84v-22.83c0-.32.13-.57.39-.75.26-.18.56-.27.9-.27h5.84c2.13,0,3.81.42,5.04,1.26,1.23.84,1.85,2.36,1.85,4.55,0,1.4-.25,2.59-.76,3.55-.51.96-1.22,1.64-2.12,2.02,1.15.45,2.03,1.12,2.62,2s.88,2.14.88,3.77v.61c0,2.45-.61,4.23-1.83,5.37-1.22,1.13-2.85,1.7-4.89,1.7h-6.62c-.39,0-.7-.1-.93-.29-.24-.19-.36-.42-.36-.7ZM922.82,165.18h4.25c1.4,0,2.43-.32,3.09-.95.66-.63.98-1.64.98-3.02,0-2.42-1.39-3.63-4.18-3.63h-4.14v7.61ZM922.82,177.24h4.59c2.9,0,4.35-1.55,4.35-4.65v-.58c0-1.56-.37-2.69-1.1-3.4-.74-.7-1.82-1.05-3.24-1.05h-4.59v9.68Z"/>
    <path class="cls-9" d="M938.89,176.32c0-.36.13-.71.39-1.05.26-.34.55-.51.87-.51.2,0,.46.14.78.42.32.28.65.6.99.95.34.35.87.67,1.6.95.72.28,1.54.42,2.45.42,1.47,0,2.63-.36,3.46-1.07.84-.71,1.26-1.76,1.26-3.14,0-1.24-.39-2.26-1.16-3.04-.77-.78-1.7-1.38-2.79-1.78-1.09-.41-2.18-.84-3.28-1.31-1.1-.46-2.03-1.18-2.8-2.14-.77-.96-1.16-2.2-1.16-3.72,0-1.19.23-2.23.68-3.11.45-.88,1.06-1.54,1.82-1.99.76-.45,1.55-.77,2.36-.98.82-.21,1.69-.31,2.62-.31,1.4,0,2.75.2,4.03.61,1.28.41,1.92.97,1.92,1.69,0,.32-.11.66-.34,1.02-.23.36-.52.55-.88.55-.09,0-.61-.22-1.56-.65-.95-.43-2-.65-3.16-.65-1.38,0-2.5.28-3.35.85-.85.57-1.27,1.46-1.27,2.68,0,1.04.38,1.89,1.15,2.53.77.65,1.7,1.16,2.8,1.55,1.1.39,2.19.83,3.28,1.33s2.02,1.3,2.79,2.39c.77,1.1,1.15,2.5,1.15,4.2,0,2.33-.68,4.09-2.04,5.28-1.36,1.19-3.16,1.78-5.4,1.78-2.02,0-3.72-.42-5.11-1.27-1.39-.84-2.09-1.68-2.09-2.5Z"/>
    <g>
      <path class="cls-5" d="M999.64,144.18c-.08-.41-.17-.83-.28-1.23-.42-1.62-1.03-3.17-1.82-4.61-.47-.86-1-1.69-1.59-2.47-.2-.26-.4-.52-.6-.77-.41-.5-.85-.98-1.31-1.44-.69-.69-1.43-1.33-2.21-1.92-.26-.2-.53-.38-.8-.57-.2-.14-.41-.27-.62-.4-3.12-1.95-6.8-3.07-10.74-3.07s-7.62,1.13-10.74,3.07c-.21.13-.41.26-.62.4-.27.18-.54.37-.8.57-.78.59-1.52,1.23-2.21,1.92-.46.46-.9.94-1.31,1.44-.21.25-.41.51-.6.77-.59.78-1.12,1.61-1.59,2.47-.78,1.44-1.4,2.98-1.82,4.61-.1.41-.2.82-.28,1.23-.24,1.24-.36,2.53-.36,3.84h0c0,.57.02,1.14.07,1.71.05.56.12,1.12.21,1.68.09.55.21,1.1.35,1.64.21.81.47,1.61.77,2.39.72,1.82,1.71,3.54,2.95,5.11.25.32.5.64.74.96.43.56.85,1.14,1.26,1.72.31.43.62.87.92,1.31.71,1.04,1.39,2.09,2.03,3.13.21.35.42.69.63,1.04h0v9.71c0,.8.65,1.44,1.44,1.44s1.44-.65,1.44-1.44v-28.8c0-.8-.65-1.44-1.44-1.44s-1.44.65-1.44,1.44v13.72c-1.09-1.61-2.22-3.17-3.32-4.58-2.44-3.1-3.73-6.81-3.73-10.75,0-9.61,7.82-17.43,17.44-17.43s17.43,7.82,17.43,17.43c0,3.93-1.29,7.65-3.73,10.75-1.14,1.45-2.26,2.99-3.33,4.57v-9.2c0-.8-.65-1.44-1.44-1.44s-1.44.65-1.44,1.44v24.29c0,.8.65,1.44,1.44,1.44s1.44-.65,1.44-1.44v-9.71h0v-.02c.41-.69.84-1.39,1.29-2.08.44-.69.9-1.38,1.37-2.07.94-1.37,1.93-2.71,2.94-3.99,1.42-1.81,2.51-3.79,3.24-5.9.18-.53.34-1.06.48-1.6.07-.27.13-.54.19-.82.17-.82.3-1.66.37-2.51.05-.56.07-1.13.07-1.71h0c0-1.31-.13-2.6-.36-3.84Z"/>
      <g>
        <path class="cls-3" d="M978.15,178.42v-37.81c0-.8-.65-1.44-1.44-1.44s-1.44.65-1.44,1.44v37.81c0,.8.65,1.44,1.44,1.44s1.44-.65,1.44-1.44Z"/>
        <path class="cls-2" d="M984.09,178.42v-31.5c0-.8-.65-1.44-1.44-1.44s-1.44.65-1.44,1.44v31.5c0,.8.65,1.44,1.44,1.44s1.44-.65,1.44-1.44Z"/>
      </g>
    </g>
    <path class="cls-7" d="M988.61,182.92h-17.87c-.8,0-1.44.65-1.44,1.44s.65,1.44,1.44,1.44h17.87c.8,0,1.44-.65,1.44-1.44s-.65-1.44-1.44-1.44Z"/>
    <path class="cls-7" d="M982.66,188.86h-5.95c-.8,0-1.44.65-1.44,1.44s.65,1.44,1.44,1.44h5.95c.8,0,1.44-.65,1.44-1.44s-.65-1.44-1.44-1.44Z"/>
  </g>
  <path class="cls-6" d="M696.01,44.11l4.81,10.74h-9.78l4.77-10.74h.2ZM695.1,36.78l-12.01,26.39c-.24.51.08,1.02.67,1.02h2.46c.47,0,.78-.31.9-.59.39-.9.79-1.79,1.19-2.69h0c.4-.89.8-1.78,1.19-2.69h12.79l2.43,5.37c.16.35.43.59.9.59h2.46c.59,0,.9-.51.67-1.02l-11.93-26.39c-.12-.24-.47-.43-.67-.43h-.39c-.2,0-.55.2-.67.43ZM734.07,40c-2.66-2.31-5.52-3.65-9.47-3.65-7.83,0-14.12,6.31-14.12,14.15s6.3,14.07,14.12,14.07c3.48,0,6.85-1.22,9.51-3.8.27-.27.35-.78.04-1.06l-1.8-1.76c-.23-.2-.59-.24-.94.04-1.88,1.45-3.87,2.59-6.73,2.59-5.59,0-9.86-4.67-9.86-10.15s4.23-10.19,9.82-10.19c2.43,0,4.93,1.02,6.77,2.63.35.35.7.35.98,0l1.72-1.76c.31-.31.31-.78-.04-1.1ZM749.71,60.38c5.49,0,9.94-4.46,9.94-9.96s-4.45-9.96-9.94-9.96-9.94,4.46-9.94,9.96,4.45,9.96,9.94,9.96ZM749.71,64.4c3.13,0,6.02-1.03,8.34-2.77l3.42,3.42c.75.75,1.96.75,2.71,0,.75-.75.75-1.97,0-2.72l-3.4-3.41c1.8-2.35,2.88-5.3,2.88-8.5,0-7.72-6.24-13.97-13.95-13.97s-13.95,6.26-13.95,13.97,6.24,13.97,13.95,13.97ZM769.02,37.49c0-.39.35-.74.74-.74h2.62c.43,0,.74.35.74.74v16.19c0,3.92,2.5,6.98,6.5,6.98s6.57-3.02,6.57-6.9v-16.27c0-.39.31-.74.74-.74h2.62c.39,0,.74.35.74.74v16.47c0,5.96-4.5,10.62-10.68,10.62s-10.6-4.67-10.6-10.62v-16.47ZM797.5,36.74c-.39,0-.74.35-.74.74v25.95c0,.39.35.74.74.74h2.58c.39,0,.74-.35.74-.74v-25.95c0-.39-.35-.74-.74-.74h-2.58ZM818.87,50.07c2.54,0,4.77-2.16,4.77-4.86,0-2.55-2.23-4.67-4.77-4.67h-6.96v9.53h6.96ZM807.8,37.49c0-.39.31-.74.74-.74h10.64c4.69,0,8.53,3.72,8.53,8.39,0,3.61-2.39,6.59-5.79,7.96l5.36,9.96c.27.51,0,1.14-.66,1.14h-3.05c-.31,0-.55-.2-.63-.35l-5.2-10.39h-5.91v10c0,.39-.35.74-.74.74h-2.54c-.43,0-.74-.35-.74-.74v-25.96ZM833.31,36.74c-.43,0-.74.35-.74.74v25.95c0,.39.31.74.74.74h15.65c.43,0,.74-.35.74-.74v-2.16c0-.39-.31-.74-.74-.74h-12.36v-8.43h10.45c.39,0,.74-.31.74-.74v-2.2c0-.39-.35-.74-.74-.74h-10.45v-8h12.36c.43,0,.74-.35.74-.74v-2.2c0-.39-.31-.74-.74-.74h-15.65ZM864.15,60.46c5.75,0,9.94-4.23,9.94-10.04s-4.19-9.96-9.94-9.96h-5.17v19.99h5.17ZM854.99,37.49c0-.39.31-.74.7-.74h9c7.55,0,13.73,6.16,13.73,13.68s-6.18,13.76-13.73,13.76h-9c-.39,0-.7-.35-.7-.74v-25.95ZM906.91,52.29h2.17l3.77,9.21h.14l3.77-9.21h2.17v11.84h-1.7v-8.57h-.11l-3.49,8.55h-1.41l-3.49-8.56h-.11v8.58h-1.7v-11.84ZM903.99,61.47c.46-.91.69-2,.69-3.26s-.23-2.35-.69-3.26c-.46-.91-1.1-1.61-1.9-2.09-.8-.49-1.71-.73-2.73-.73s-1.94.24-2.75.73c-.8.49-1.43,1.18-1.9,2.09-.46.91-.69,1.99-.69,3.26s.23,2.35.69,3.26c.46.91,1.09,1.61,1.9,2.1.81.49,1.72.73,2.75.73s1.93-.24,2.73-.73c.81-.49,1.44-1.19,1.9-2.09ZM902.45,55.77c.31.66.47,1.47.47,2.43s-.16,1.78-.47,2.44c-.31.66-.73,1.16-1.27,1.5-.54.34-1.14.51-1.82.51s-1.29-.17-1.83-.51c-.54-.34-.96-.84-1.27-1.5-.31-.66-.46-1.48-.46-2.44s.15-1.78.46-2.43c.31-.66.74-1.16,1.27-1.5.54-.34,1.14-.51,1.83-.51s1.29.17,1.82.51c.54.34.96.84,1.27,1.5ZM892.26,56.14h-1.8c-.07-.39-.2-.72-.39-1.02s-.42-.54-.69-.75c-.27-.2-.58-.36-.92-.46-.34-.1-.69-.16-1.07-.16-.68,0-1.29.17-1.83.51-.54.34-.96.85-1.27,1.51-.31.66-.46,1.47-.46,2.43s.15,1.78.46,2.44c.31.66.74,1.16,1.28,1.5.54.34,1.15.51,1.82.51.37,0,.73-.05,1.06-.15.34-.1.65-.26.92-.46.27-.2.5-.45.69-.73.19-.29.33-.63.4-1.01h1.8c-.1.59-.28,1.12-.56,1.61-.27.49-.63.91-1.06,1.26-.43.35-.92.62-1.47.82s-1.15.29-1.8.29c-1.03,0-1.94-.24-2.74-.73-.8-.49-1.43-1.19-1.9-2.1-.46-.91-.69-2-.69-3.26s.23-2.35.69-3.26c.46-.91,1.09-1.61,1.9-2.09.8-.49,1.71-.73,2.73-.73.63,0,1.21.09,1.76.27.55.18,1.04.44,1.47.79.44.34.8.76,1.08,1.26.29.49.48,1.06.58,1.69ZM878,63.9c.23.22.5.34.82.34.21,0,.4-.05.58-.16.17-.1.31-.24.42-.42.11-.18.16-.37.16-.58,0-.32-.11-.59-.34-.81-.23-.23-.5-.34-.82-.34s-.59.11-.82.34c-.23.22-.34.49-.34.81s.11.59.34.82Z"/>
  <g>
    <path class="cls-4" d="M28.94,250.88c0,2.15-.35,4.12-1.05,5.91-.7,1.79-1.68,3.34-2.95,4.63-1.27,1.29-2.79,2.3-4.58,3.01-1.78.71-3.75,1.07-5.91,1.07s-4.12-.36-5.9-1.07c-1.77-.71-3.3-1.72-4.57-3.01-1.27-1.29-2.25-2.84-2.95-4.63-.7-1.79-1.04-3.77-1.04-5.91s.35-4.12,1.04-5.91c.7-1.79,1.68-3.34,2.95-4.64s2.79-2.31,4.57-3.03c1.77-.72,3.74-1.08,5.9-1.08s4.13.36,5.91,1.08c1.78.72,3.31,1.73,4.58,3.03s2.25,2.85,2.95,4.64c.7,1.79,1.05,3.77,1.05,5.91ZM24.86,250.88c0-1.76-.24-3.34-.74-4.74-.49-1.4-1.19-2.59-2.09-3.55-.9-.97-1.99-1.71-3.28-2.23-1.28-.52-2.72-.78-4.3-.78s-3,.26-4.28.78c-1.28.52-2.38,1.26-3.29,2.23-.91.97-1.61,2.15-2.1,3.55-.49,1.4-.74,2.98-.74,4.74s.25,3.34.74,4.73c.49,1.39,1.19,2.58,2.1,3.54s2,1.71,3.29,2.22c1.28.51,2.71.77,4.28.77s3.02-.26,4.3-.77c1.28-.51,2.38-1.25,3.28-2.22.9-.97,1.6-2.15,2.09-3.54.49-1.39.74-2.97.74-4.73Z"/>
    <path class="cls-4" d="M33.38,272.07v-27.14h2.17c.52,0,.85.25.98.74l.31,2.4c.89-1.05,1.9-1.9,3.04-2.54,1.14-.64,2.45-.96,3.94-.96,1.19,0,2.27.22,3.24.67s1.79,1.11,2.48,1.98c.68.87,1.21,1.96,1.58,3.25.37,1.29.55,2.78.55,4.46,0,1.49-.2,2.89-.61,4.17-.41,1.29-1,2.4-1.76,3.34s-1.7,1.68-2.81,2.22c-1.11.54-2.37.81-3.76.81-1.28,0-2.38-.21-3.29-.62-.91-.41-1.71-1-2.41-1.76v8.97h-3.65ZM42.61,247.45c-1.19,0-2.23.27-3.12.8s-1.72,1.29-2.47,2.26v9.81c.67.88,1.4,1.5,2.2,1.86.8.36,1.69.54,2.67.54,1.92,0,3.41-.67,4.44-2.02,1.04-1.35,1.56-3.27,1.56-5.76,0-1.32-.12-2.45-.36-3.4-.24-.95-.58-1.72-1.03-2.33-.45-.61-1-1.05-1.66-1.33-.66-.28-1.4-.42-2.23-.42Z"/>
    <path class="cls-4" d="M63.79,244.61c1.24,0,2.39.2,3.44.61,1.05.41,1.96.99,2.72,1.76.76.77,1.36,1.71,1.79,2.84.43,1.13.64,2.41.64,3.85,0,.56-.06.93-.18,1.12s-.36.28-.7.28h-13.8c.03,1.28.21,2.4.53,3.34.33.95.78,1.74,1.35,2.37.57.63,1.26,1.11,2.05,1.42.79.31,1.68.47,2.66.47.91,0,1.7-.1,2.37-.31.66-.21,1.23-.43,1.71-.67.48-.24.88-.46,1.2-.67.32-.21.6-.31.83-.31.3,0,.53.11.7.34l1.02,1.3c-.45.53-.99,1-1.62,1.39-.63.39-1.3.72-2.02.97-.72.25-1.46.44-2.22.57s-1.52.19-2.27.19c-1.43,0-2.75-.24-3.96-.71s-2.25-1.17-3.13-2.08c-.88-.91-1.57-2.04-2.06-3.39-.49-1.35-.74-2.9-.74-4.64,0-1.41.22-2.74.66-3.96.44-1.23,1.08-2.29,1.92-3.19.83-.9,1.85-1.61,3.05-2.12,1.2-.51,2.55-.77,4.06-.77ZM63.87,247.23c-1.76,0-3.15.5-4.16,1.49-1.01.99-1.64,2.37-1.88,4.13h11.28c0-.83-.12-1.58-.35-2.27-.23-.69-.57-1.28-1.02-1.78-.45-.5-1-.89-1.65-1.16-.65-.27-1.39-.41-2.22-.41Z"/>
    <path class="cls-4" d="M76.63,265.21v-20.28h2.17c.52,0,.85.25.98.74l.29,2.2c.9-.97,1.91-1.76,3.02-2.36,1.11-.6,2.4-.9,3.86-.9,1.13,0,2.13.18,3,.55.87.37,1.59.89,2.17,1.56.58.67,1.02,1.48,1.32,2.43.3.95.45,1.99.45,3.14v12.91h-3.65v-12.91c0-1.53-.36-2.73-1.08-3.57-.72-.85-1.81-1.27-3.29-1.27-1.08,0-2.09.25-3.02.76-.93.51-1.8,1.19-2.59,2.06v14.93h-3.65Z"/>
    <path class="cls-4" d="M98.05,251.7h10.12v3.02h-10.12v-3.02Z"/>
    <path class="cls-4" d="M124.67,248.28c-.16.29-.42.44-.76.44-.21,0-.44-.07-.7-.22-.26-.15-.58-.31-.95-.49s-.82-.35-1.34-.5c-.52-.15-1.13-.23-1.84-.23-.61,0-1.17.08-1.66.23-.49.15-.91.36-1.26.63-.35.27-.61.58-.8.93-.18.35-.28.74-.28,1.15,0,.52.15.95.46,1.3.31.35.71.65,1.22.9.5.25,1.08.48,1.72.67.64.19,1.3.4,1.98.62.67.22,1.33.46,1.97.73.64.27,1.22.6,1.72,1,.5.4.91.89,1.22,1.47.31.58.46,1.28.46,2.09,0,.93-.17,1.8-.51,2.59-.34.79-.85,1.48-1.51,2.06-.67.58-1.49,1.04-2.46,1.37-.97.33-2.09.5-3.36.5-1.45,0-2.76-.23-3.93-.69-1.17-.46-2.17-1.05-2.99-1.77l.86-1.36c.11-.17.24-.31.39-.4.15-.09.35-.14.59-.14s.51.09.78.28c.27.19.61.39.99.62.39.23.86.43,1.41.62s1.25.28,2.08.28c.71,0,1.33-.09,1.86-.27.53-.18.98-.42,1.33-.73.36-.31.62-.66.79-1.06.17-.4.25-.83.25-1.28,0-.56-.15-1.02-.46-1.39-.31-.37-.71-.68-1.22-.94s-1.08-.49-1.73-.68c-.65-.19-1.31-.4-1.99-.61-.67-.21-1.34-.46-1.99-.73-.65-.27-1.23-.62-1.73-1.03-.5-.41-.91-.92-1.22-1.53-.31-.61-.46-1.34-.46-2.21,0-.77.16-1.52.49-2.23.33-.71.8-1.34,1.43-1.88.63-.54,1.4-.97,2.31-1.29.91-.32,1.96-.48,3.13-.48,1.36,0,2.59.21,3.68.63,1.08.42,2.02,1,2.82,1.73l-.82,1.3Z"/>
    <path class="cls-4" d="M138.56,244.61c1.52,0,2.88.25,4.11.74,1.22.49,2.26,1.19,3.11,2.1.85.91,1.51,2,1.96,3.29.46,1.29.69,2.73.69,4.31s-.23,3.04-.69,4.32c-.46,1.28-1.11,2.38-1.96,3.28-.85.91-1.89,1.6-3.11,2.09s-2.59.73-4.11.73-2.88-.24-4.11-.73-2.26-1.18-3.12-2.09c-.86-.91-1.52-2-1.99-3.28-.46-1.28-.7-2.72-.7-4.32s.23-3.03.7-4.31c.46-1.29,1.13-2.39,1.99-3.29.86-.91,1.9-1.61,3.12-2.1,1.22-.49,2.59-.74,4.11-.74ZM138.56,262.71c2.05,0,3.58-.67,4.59-2.01,1.01-1.34,1.52-3.21,1.52-5.61s-.5-4.3-1.52-5.64c-1.01-1.35-2.54-2.02-4.59-2.02-1.04,0-1.94.17-2.7.52-.76.35-1.4.85-1.92,1.5-.51.65-.89,1.46-1.15,2.41-.25.95-.38,2.03-.38,3.23s.13,2.28.38,3.22c.25.95.64,1.74,1.15,2.39.51.65,1.15,1.14,1.92,1.49.76.35,1.67.52,2.7.52Z"/>
    <path class="cls-4" d="M155.68,244.93v12.93c0,1.53.36,2.72,1.08,3.56s1.82,1.26,3.28,1.26c1.07,0,2.07-.25,3.01-.74.94-.49,1.81-1.18,2.6-2.06v-14.95h3.64v20.28h-2.17c-.52,0-.85-.25-.98-.74l-.29-2.18c-.9.97-1.91,1.76-3.03,2.35-1.12.59-2.4.89-3.85.89-1.13,0-2.13-.18-3-.55s-1.59-.88-2.18-1.55c-.59-.67-1.03-1.47-1.32-2.42-.29-.95-.44-1.99-.44-3.14v-12.93h3.65Z"/>
    <path class="cls-4" d="M174.89,265.21v-20.28h2.09c.4,0,.67.07.82.22.15.15.25.4.31.76l.24,3.16c.71-1.41,1.59-2.52,2.63-3.31,1.04-.79,2.27-1.19,3.68-1.19.57,0,1.09.06,1.56.19.46.13.89.3,1.29.53l-.47,2.66c-.1.33-.31.5-.63.5-.19,0-.48-.06-.88-.19-.4-.13-.95-.19-1.66-.19-1.27,0-2.33.36-3.19,1.08-.85.72-1.57,1.77-2.14,3.14v12.91h-3.65Z"/>
    <path class="cls-4" d="M205.14,248.54c-.11.15-.22.26-.33.34-.11.08-.27.12-.47.12s-.43-.08-.66-.25c-.24-.17-.54-.35-.91-.55-.37-.2-.82-.38-1.34-.55-.53-.17-1.17-.25-1.93-.25-1.01,0-1.91.18-2.68.53-.78.35-1.43.86-1.96,1.53-.53.67-.92,1.47-1.19,2.42-.27.95-.4,2.01-.4,3.18s.14,2.32.43,3.27c.29.95.69,1.75,1.21,2.4.52.65,1.15,1.14,1.89,1.48.74.34,1.58.51,2.51.51s1.62-.1,2.19-.31c.57-.21,1.05-.44,1.43-.69s.7-.48.94-.69.49-.31.74-.31c.31,0,.55.11.7.34l1.02,1.3c-.9,1.08-2.03,1.87-3.38,2.37-1.35.5-2.78.75-4.28.75-1.3,0-2.5-.23-3.62-.7-1.11-.47-2.08-1.14-2.9-2.03-.82-.89-1.47-1.98-1.94-3.27-.47-1.29-.71-2.77-.71-4.42,0-1.51.21-2.9.64-4.18.43-1.28,1.06-2.38,1.88-3.31.83-.93,1.85-1.65,3.06-2.17,1.22-.52,2.61-.78,4.18-.78,1.45,0,2.73.23,3.85.69,1.12.46,2.11,1.11,2.97,1.95l-.96,1.28Z"/>
    <path class="cls-4" d="M217.91,244.61c1.24,0,2.39.2,3.44.61,1.05.41,1.96.99,2.72,1.76.76.77,1.36,1.71,1.79,2.84.43,1.13.64,2.41.64,3.85,0,.56-.06.93-.18,1.12s-.36.28-.7.28h-13.8c.03,1.28.21,2.4.53,3.34.33.95.78,1.74,1.35,2.37.57.63,1.26,1.11,2.05,1.42.79.31,1.68.47,2.66.47.91,0,1.7-.1,2.37-.31.66-.21,1.23-.43,1.71-.67.48-.24.88-.46,1.2-.67.32-.21.6-.31.83-.31.3,0,.53.11.7.34l1.02,1.3c-.45.53-.99,1-1.62,1.39-.63.39-1.3.72-2.02.97-.72.25-1.46.44-2.22.57s-1.52.19-2.27.19c-1.43,0-2.75-.24-3.96-.71-1.21-.47-2.25-1.17-3.13-2.08-.88-.91-1.57-2.04-2.06-3.39-.49-1.35-.74-2.9-.74-4.64,0-1.41.22-2.74.66-3.96.44-1.23,1.08-2.29,1.92-3.19.83-.9,1.85-1.61,3.05-2.12,1.2-.51,2.55-.77,4.06-.77ZM218,247.23c-1.76,0-3.15.5-4.16,1.49s-1.64,2.37-1.88,4.13h11.28c0-.83-.12-1.58-.35-2.27-.23-.69-.57-1.28-1.02-1.78s-1-.89-1.65-1.16c-.65-.27-1.39-.41-2.22-.41Z"/>
    <path class="cls-4" d="M239.07,265.21v-17.23l-2.29-.26c-.29-.07-.52-.17-.71-.31-.19-.14-.28-.34-.28-.61v-1.46h3.28v-1.12c0-1.24.2-2.38.59-3.41.39-1.03.99-1.92,1.78-2.67.79-.75,1.78-1.33,2.96-1.74,1.18-.41,2.56-.62,4.13-.62.52,0,1.05.03,1.59.1.54.07,1.01.17,1.4.31l-.12,1.86c-.03.17-.11.28-.25.32-.14.05-.33.07-.59.07h-1.02c-2.42,0-4.17.49-5.27,1.47-1.1.98-1.65,2.45-1.65,4.42v1.02h12.53v19.88h-3.65v-17.29h-8.77v17.29h-3.67Z"/>
    <path class="cls-4" d="M261.18,265.21v-20.28h2.17c.52,0,.85.25.98.74l.29,2.2c.9-.97,1.91-1.76,3.02-2.36,1.11-.6,2.4-.9,3.86-.9,1.13,0,2.13.18,3,.55.87.37,1.59.89,2.17,1.56.58.67,1.02,1.48,1.32,2.43.3.95.45,1.99.45,3.14v12.91h-3.65v-12.91c0-1.53-.36-2.73-1.08-3.57-.72-.85-1.81-1.27-3.29-1.27-1.08,0-2.09.25-3.02.76-.93.51-1.8,1.19-2.59,2.06v14.93h-3.65Z"/>
    <path class="cls-4" d="M298.79,265.21h-1.62c-.36,0-.64-.05-.86-.16-.22-.11-.36-.33-.43-.68l-.41-1.88c-.55.48-1.08.91-1.6,1.29-.52.38-1.07.7-1.64.96-.57.26-1.18.46-1.83.59-.65.13-1.37.2-2.16.2s-1.56-.11-2.26-.33c-.7-.22-1.31-.55-1.83-.99-.52-.44-.93-1-1.24-1.68-.31-.68-.46-1.48-.46-2.4,0-.8.22-1.58.67-2.32.45-.74,1.18-1.4,2.18-1.98,1-.58,2.32-1.05,3.94-1.42s3.61-.55,5.96-.55v-1.59c0-1.58-.35-2.78-1.03-3.59-.69-.81-1.71-1.22-3.06-1.22-.89,0-1.64.11-2.24.33-.61.22-1.13.47-1.58.74-.44.27-.83.52-1.15.74-.32.22-.64.33-.95.33-.24,0-.46-.06-.64-.19-.19-.13-.33-.28-.44-.47l-.65-1.14c1.15-1.08,2.38-1.89,3.71-2.42,1.32-.53,2.79-.8,4.4-.8,1.16,0,2.19.19,3.09.56.9.37,1.66.89,2.27,1.56.62.67,1.08,1.47,1.39,2.42.31.95.47,1.99.47,3.12v12.97ZM289.32,263.03c.64,0,1.23-.06,1.76-.19.53-.13,1.04-.31,1.51-.54.47-.23.92-.52,1.35-.85.43-.33.85-.71,1.26-1.14v-4.18c-1.68,0-3.11.1-4.28.31-1.17.21-2.13.48-2.87.82-.74.34-1.27.73-1.61,1.19-.33.46-.5.97-.5,1.53s.09,1,.27,1.39c.18.39.41.71.72.96.3.25.66.43,1.07.54s.85.17,1.33.17Z"/>
    <path class="cls-4" d="M303.9,265.21v-20.28h2.17c.52,0,.85.25.98.74l.29,2.2c.9-.97,1.91-1.76,3.02-2.36,1.11-.6,2.4-.9,3.86-.9,1.13,0,2.13.18,3,.55.87.37,1.59.89,2.17,1.56.58.67,1.02,1.48,1.32,2.43.3.95.45,1.99.45,3.14v12.91h-3.65v-12.91c0-1.53-.36-2.73-1.08-3.57-.72-.85-1.81-1.27-3.29-1.27-1.08,0-2.09.25-3.02.76-.93.51-1.8,1.19-2.59,2.06v14.93h-3.65Z"/>
    <path class="cls-4" d="M340.42,248.54c-.11.15-.22.26-.33.34-.11.08-.27.12-.47.12s-.43-.08-.66-.25c-.24-.17-.54-.35-.91-.55-.37-.2-.82-.38-1.34-.55-.53-.17-1.17-.25-1.93-.25-1.01,0-1.91.18-2.68.53-.78.35-1.43.86-1.96,1.53-.53.67-.92,1.47-1.19,2.42-.27.95-.4,2.01-.4,3.18s.14,2.32.43,3.27c.29.95.69,1.75,1.21,2.4.52.65,1.15,1.14,1.89,1.48.74.34,1.58.51,2.51.51s1.62-.1,2.19-.31c.57-.21,1.05-.44,1.43-.69s.7-.48.94-.69.49-.31.74-.31c.31,0,.55.11.7.34l1.02,1.3c-.9,1.08-2.03,1.87-3.38,2.37-1.35.5-2.78.75-4.28.75-1.3,0-2.5-.23-3.62-.7-1.11-.47-2.08-1.14-2.9-2.03-.82-.89-1.47-1.98-1.94-3.27-.47-1.29-.71-2.77-.71-4.42,0-1.51.21-2.9.64-4.18.43-1.28,1.06-2.38,1.88-3.31.83-.93,1.85-1.65,3.06-2.17,1.22-.52,2.61-.78,4.18-.78,1.45,0,2.73.23,3.85.69,1.12.46,2.11,1.11,2.97,1.95l-.96,1.28Z"/>
    <path class="cls-4" d="M349.86,238.57c0,.35-.07.67-.22.97-.14.3-.33.57-.57.8-.24.23-.51.42-.83.55-.31.13-.65.2-1,.2s-.69-.07-.99-.2c-.31-.13-.58-.32-.82-.55-.24-.23-.43-.5-.56-.8-.14-.3-.21-.62-.21-.97s.07-.68.21-.99c.14-.31.32-.59.56-.82.24-.23.51-.42.82-.55.31-.13.64-.2.99-.2s.69.07,1,.2c.31.13.59.32.83.55.24.23.43.51.57.82.14.31.22.64.22.99ZM349.04,244.93v20.28h-3.65v-20.28h3.65Z"/>
    <path class="cls-4" d="M370.3,265.21h-1.62c-.36,0-.64-.05-.86-.16-.22-.11-.36-.33-.43-.68l-.41-1.88c-.55.48-1.08.91-1.6,1.29-.52.38-1.07.7-1.64.96-.57.26-1.18.46-1.83.59-.65.13-1.37.2-2.16.2s-1.56-.11-2.26-.33c-.7-.22-1.31-.55-1.83-.99-.52-.44-.93-1-1.24-1.68-.31-.68-.46-1.48-.46-2.4,0-.8.22-1.58.67-2.32.45-.74,1.18-1.4,2.18-1.98,1-.58,2.32-1.05,3.94-1.42s3.61-.55,5.96-.55v-1.59c0-1.58-.35-2.78-1.03-3.59-.69-.81-1.71-1.22-3.06-1.22-.89,0-1.64.11-2.24.33-.61.22-1.13.47-1.58.74s-.83.52-1.15.74c-.32.22-.64.33-.95.33-.24,0-.46-.06-.64-.19-.19-.13-.33-.28-.44-.47l-.65-1.14c1.15-1.08,2.38-1.89,3.71-2.42,1.32-.53,2.79-.8,4.4-.8,1.16,0,2.19.19,3.09.56.9.37,1.66.89,2.27,1.56.62.67,1.08,1.47,1.39,2.42.31.95.47,1.99.47,3.12v12.97ZM360.83,263.03c.64,0,1.23-.06,1.76-.19.53-.13,1.04-.31,1.51-.54.47-.23.92-.52,1.35-.85.43-.33.85-.71,1.26-1.14v-4.18c-1.68,0-3.11.1-4.28.31-1.17.21-2.13.48-2.87.82-.74.34-1.27.73-1.61,1.19-.33.46-.5.97-.5,1.53s.09,1,.27,1.39c.18.39.41.71.72.96.3.25.66.43,1.07.54s.85.17,1.33.17Z"/>
    <path class="cls-4" d="M379.47,235.73v29.48h-3.65v-29.48h3.65Z"/>
    <path class="cls-4" d="M417.7,265.21h-3.07c-.36,0-.64-.09-.86-.26-.22-.17-.38-.39-.49-.66l-2.74-6.93h-13.17l-2.74,6.93c-.1.24-.26.45-.49.64-.23.19-.52.28-.86.28h-3.07l11.74-28.68h4.03l11.73,28.68ZM398.47,254.56h10.96l-4.61-11.67c-.3-.72-.59-1.62-.88-2.7-.15.55-.3,1.05-.44,1.51-.14.46-.28.86-.42,1.21l-4.61,11.65Z"/>
    <path class="cls-4" d="M425.36,254.48v10.73h-3.95v-28.68h8.66c1.86,0,3.47.21,4.84.63,1.37.42,2.51,1.02,3.41,1.79.9.77,1.57,1.71,2.02,2.8.44,1.09.66,2.31.66,3.66s-.24,2.56-.72,3.66c-.48,1.11-1.18,2.06-2.1,2.86-.92.8-2.07,1.42-3.43,1.87-1.37.45-2.93.67-4.69.67h-4.71ZM425.36,251.4h4.71c1.13,0,2.13-.15,3-.44.87-.29,1.59-.7,2.18-1.23.59-.53,1.03-1.16,1.33-1.89.3-.73.45-1.54.45-2.42,0-1.83-.58-3.26-1.73-4.28-1.15-1.03-2.9-1.54-5.23-1.54h-4.71v11.81Z"/>
    <path class="cls-4" d="M450.33,265.21h-3.97v-28.68h3.97v28.68Z"/>
    <path class="cls-4" d="M478.85,248.54c-.11.15-.22.26-.33.34-.11.08-.27.12-.47.12s-.43-.08-.66-.25c-.24-.17-.54-.35-.91-.55-.37-.2-.82-.38-1.34-.55-.53-.17-1.17-.25-1.93-.25-1.01,0-1.91.18-2.68.53-.78.35-1.43.86-1.96,1.53-.53.67-.92,1.47-1.19,2.42-.27.95-.4,2.01-.4,3.18s.14,2.32.43,3.27c.29.95.69,1.75,1.21,2.4.52.65,1.15,1.14,1.89,1.48.74.34,1.58.51,2.51.51s1.62-.1,2.19-.31c.57-.21,1.05-.44,1.43-.69s.7-.48.94-.69.49-.31.74-.31c.31,0,.55.11.7.34l1.02,1.3c-.9,1.08-2.03,1.87-3.38,2.37-1.35.5-2.78.75-4.28.75-1.3,0-2.5-.23-3.62-.7-1.11-.47-2.08-1.14-2.9-2.03-.82-.89-1.47-1.98-1.94-3.27-.47-1.29-.71-2.77-.71-4.42,0-1.51.21-2.9.64-4.18.43-1.28,1.06-2.38,1.88-3.31.83-.93,1.85-1.65,3.06-2.17,1.22-.52,2.61-.78,4.18-.78,1.45,0,2.73.23,3.85.69,1.12.46,2.11,1.11,2.97,1.95l-.96,1.28Z"/>
    <path class="cls-4" d="M487.48,235.73v29.48h-3.65v-29.48h3.65Z"/>
    <path class="cls-4" d="M498.37,238.57c0,.35-.07.67-.22.97-.14.3-.33.57-.57.8-.24.23-.51.42-.83.55-.31.13-.65.2-1,.2s-.69-.07-.99-.2c-.31-.13-.58-.32-.82-.55-.24-.23-.43-.5-.56-.8-.14-.3-.21-.62-.21-.97s.07-.68.21-.99c.14-.31.32-.59.56-.82.24-.23.51-.42.82-.55.31-.13.64-.2.99-.2s.69.07,1,.2c.31.13.59.32.83.55.24.23.43.51.57.82.14.31.22.64.22.99ZM497.55,244.93v20.28h-3.65v-20.28h3.65Z"/>
    <path class="cls-4" d="M511.78,244.61c1.24,0,2.39.2,3.44.61,1.05.41,1.96.99,2.72,1.76.76.77,1.36,1.71,1.79,2.84.43,1.13.64,2.41.64,3.85,0,.56-.06.93-.18,1.12s-.36.28-.7.28h-13.8c.03,1.28.21,2.4.53,3.34.33.95.78,1.74,1.35,2.37.57.63,1.26,1.11,2.05,1.42.79.31,1.68.47,2.66.47.91,0,1.7-.1,2.37-.31.66-.21,1.23-.43,1.71-.67.48-.24.88-.46,1.2-.67.32-.21.6-.31.83-.31.3,0,.53.11.7.34l1.02,1.3c-.45.53-.99,1-1.62,1.39-.63.39-1.3.72-2.02.97-.72.25-1.46.44-2.22.57s-1.52.19-2.27.19c-1.43,0-2.75-.24-3.96-.71s-2.25-1.17-3.13-2.08c-.88-.91-1.57-2.04-2.06-3.39-.49-1.35-.74-2.9-.74-4.64,0-1.41.22-2.74.66-3.96.44-1.23,1.08-2.29,1.92-3.19.83-.9,1.85-1.61,3.05-2.12,1.2-.51,2.55-.77,4.06-.77ZM511.87,247.23c-1.76,0-3.15.5-4.16,1.49-1.01.99-1.64,2.37-1.88,4.13h11.28c0-.83-.12-1.58-.35-2.27-.23-.69-.57-1.28-1.02-1.78s-1-.89-1.65-1.16c-.65-.27-1.39-.41-2.22-.41Z"/>
    <path class="cls-4" d="M524.62,265.21v-20.28h2.17c.52,0,.85.25.98.74l.29,2.2c.9-.97,1.91-1.76,3.02-2.36,1.11-.6,2.4-.9,3.86-.9,1.13,0,2.13.18,3,.55.87.37,1.59.89,2.17,1.56.58.67,1.02,1.48,1.32,2.43.3.95.45,1.99.45,3.14v12.91h-3.65v-12.91c0-1.53-.36-2.73-1.08-3.57-.72-.85-1.81-1.27-3.29-1.27-1.08,0-2.09.25-3.02.76-.93.51-1.8,1.19-2.59,2.06v14.93h-3.65Z"/>
    <path class="cls-4" d="M553.27,265.53c-1.64,0-2.9-.45-3.78-1.34-.88-.89-1.32-2.18-1.32-3.86v-12.41h-2.5c-.22,0-.4-.06-.55-.19-.15-.13-.23-.32-.23-.59v-1.42l3.4-.42.84-6.26c.03-.2.12-.36.27-.49.15-.13.34-.19.57-.19h1.84v6.99h5.94v2.58h-5.94v12.17c0,.85.21,1.49.63,1.9.42.41.97.62,1.64.62.38,0,.71-.05.99-.15.28-.1.52-.21.73-.33.21-.12.38-.23.52-.33.14-.1.27-.15.38-.15.19,0,.36.11.51.34l1.06,1.7c-.63.57-1.39,1.02-2.27,1.35s-1.8.49-2.74.49Z"/>
  </g>
  <g>
    <path class="cls-4" d="M214.45,27.04c0-15.13,7.6-23.36,18.61-23.36s18.61,8.23,18.61,23.36-7.6,23.78-18.61,23.78-18.61-8.31-18.61-23.78ZM241.44,27.04c0-9.69-3.26-14.94-8.38-14.94s-8.38,5.24-8.38,14.94,3.26,15.36,8.38,15.36,8.38-5.32,8.38-15.36Z"/>
    <path class="cls-4" d="M256.9,15.48h8.1l.72,3.62h.26c2.89-2.6,6.87-4.45,10.72-4.45,8.89,0,14.2,6.9,14.2,17.56,0,11.81-7.42,18.62-15.41,18.62-3.12,0-6.3-1.38-8.9-3.82h-.23l.47,5.71v10.29h-9.94V15.48ZM280.74,32.29c0-6.36-2.18-9.67-6.93-9.67-2.34,0-4.6,1-6.97,3.43v14.31c2.13,1.84,4.55,2.49,6.45,2.49,4.15,0,7.45-3.25,7.45-10.56Z"/>
    <path class="cls-4" d="M295.54,32.71c0-11.28,8.87-18.06,18.33-18.06,10.8,0,16.56,7.1,16.56,16.51,0,1.81-.28,3.59-.42,4.46h-27.16v-6.58h20.5l-1.63,1.91c0-5.86-2.67-8.9-7.53-8.9-5.34,0-9.01,3.59-9.01,10.66s4.22,10.69,11.21,10.69c3.33,0,6.16-.9,9.29-2.5l3.31,5.88c-3.97,2.5-9.11,4.04-13.95,4.04-10.96,0-19.5-6.64-19.5-18.11Z"/>
    <path class="cls-4" d="M334.99,15.48h8.1l.72,4.75h.29c3.14-3.03,7.05-5.58,12.33-5.58,8.02,0,11.58,5.27,11.58,14.02v21.32h-9.94v-20.07c0-4.83-1.47-6.99-5.53-6.99-2.96,0-4.98,1.36-7.62,3.9v23.15h-9.94V15.48Z"/>
    <path class="cls-4" d="M217.14,70.02h15.35c9.65,0,16.91,2.65,16.91,11.24,0,4.13-2.5,8.44-7.98,9.84v.28c6.67,1.18,10.21,4.63,10.21,10.73,0,9.21-7.68,13.39-17.85,13.39h-16.64v-45.47ZM231.94,88.38c5.46,0,7.72-2.16,7.72-5.79s-2.45-4.95-7.62-4.95h-4.96v10.74h4.86ZM232.92,107.87c6,0,8.97-2.09,8.97-6.49s-2.89-5.92-8.97-5.92h-5.85v12.41h5.85Z"/>
    <path class="cls-4" d="M255.42,106c0-7.73,6.64-11.65,23.51-12.69-.35-3.28-2.72-5.42-7.71-5.42-3.55,0-7.07,1.39-10.95,3.34l-3.57-6.38c4.74-2.67,10.41-4.7,16.43-4.7,9.9,0,15.75,5.11,15.75,15.44v19.89h-8.13l-.72-3.98h-.26c-3.6,2.66-8.1,4.82-12.68,4.82-7.08,0-11.66-4.48-11.66-10.33ZM278.93,105.27v-6.05c-10.96.59-13.96,2.87-13.96,6.01,0,2.42,2.12,3.56,5.21,3.56,3.25,0,6.06-1.46,8.75-3.52Z"/>
    <path class="cls-4" d="M295.45,80.99h8.1l.72,4.75h.29c3.14-3.03,7.05-5.58,12.33-5.58,8.02,0,11.58,5.27,11.58,14.02v21.32h-9.94v-20.07c0-4.83-1.47-6.99-5.52-6.99-2.96,0-4.98,1.36-7.62,3.9v23.15h-9.94v-34.5Z"/>
    <path class="cls-4" d="M334.99,66.55h9.94v28.81h.28l13.7-14.38h10.89l-24.87,25.74v8.76h-9.94v-48.94ZM349.56,99.53l5.74-6.06,15.74,22.02h-10.81l-10.67-15.96Z"/>
    <path class="cls-4" d="M384.67,88.62h-13.5v-7.63h23.44v34.5h-9.94v-26.87ZM382.45,69.33c0-3.62,2.81-6.14,6.7-6.14s6.7,2.52,6.7,6.14-2.81,6.05-6.7,6.05-6.7-2.41-6.7-6.05Z"/>
    <path class="cls-4" d="M403.61,80.99h8.1l.72,4.75h.29c3.14-3.03,7.05-5.58,12.33-5.58,8.02,0,11.58,5.27,11.58,14.02v21.32h-9.94v-20.07c0-4.83-1.47-6.99-5.52-6.99-2.96,0-4.98,1.36-7.62,3.9v23.15h-9.94v-34.5Z"/>
    <path class="cls-4" d="M441.4,121.39c0-2.81,1.91-5.17,5.53-7v-.28c-1.95-1.15-3.57-2.94-3.57-5.84,0-2.29,1.68-4.78,4.23-6.48v-.28c-2.58-1.7-4.64-4.83-4.64-8.87,0-8.18,7.05-12.48,14.98-12.48,2.09,0,4.04.28,5.72.84h14.39v7.19h-7.36c.89,1.12,1.71,2.92,1.71,4.8,0,7.87-6.33,11.6-14.45,11.6-1.47,0-3.2-.24-4.99-.77-1.17.78-1.72,1.51-1.72,2.71,0,1.94,1.96,2.76,6.17,2.76h6.69c9.23,0,14.24,2.5,14.24,8.65,0,7.1-8.12,12.38-20.89,12.38-9.32,0-16.03-2.75-16.03-8.93ZM468.83,119.59c0-2.32-2.23-2.83-6.43-2.83h-4.75c-2.5,0-4.05-.14-5.37-.47-1.97,1.17-2.75,2.33-2.75,3.66,0,2.72,3.52,4.15,9.27,4.15s10.03-2,10.03-4.51ZM463.61,92.64c0-3.77-2.57-5.92-5.69-5.92s-5.64,2.15-5.64,5.92,2.55,6.03,5.64,6.03,5.69-2.12,5.69-6.03Z"/>
    <path class="cls-4" d="M215.61,157.79c0-15.02,9.63-23.79,22.06-23.79,5.86,0,10.65,2.74,13.75,5.75l-5.5,6.03c-2.25-2.07-4.82-3.36-8.24-3.36-6.89,0-11.83,5.67-11.83,15.05s4.95,15.24,12.19,15.24c3.47,0,6.3-1.64,8.64-4.14l5.5,5.89c-3.77,4.36-8.91,6.67-15.16,6.67-11.56,0-21.4-8.08-21.4-23.35Z"/>
    <path class="cls-4" d="M254.35,163.08c0-11.5,8.62-18.11,17.94-18.11s17.94,6.62,17.94,18.11-8.62,18.06-17.94,18.06-17.94-6.62-17.94-18.06ZM280.05,163.08c0-6.22-2.71-10.26-7.76-10.26s-7.76,4.04-7.76,10.26,2.71,10.21,7.76,10.21,7.76-4.01,7.76-10.21Z"/>
    <path class="cls-4" d="M295.45,145.8h8.1l.72,4.75h.29c3.14-3.03,7.05-5.58,12.33-5.58,8.02,0,11.58,5.27,11.58,14.02v21.32h-9.94v-20.07c0-4.83-1.47-6.99-5.52-6.99-2.96,0-4.98,1.36-7.62,3.9v23.15h-9.94v-34.5Z"/>
    <path class="cls-4" d="M334.68,145.8h8.1l.72,4.75h.29c3.14-3.03,7.05-5.58,12.33-5.58,8.02,0,11.58,5.27,11.58,14.02v21.32h-9.94v-20.07c0-4.83-1.47-6.99-5.53-6.99-2.96,0-4.98,1.36-7.62,3.9v23.15h-9.94v-34.5Z"/>
    <path class="cls-4" d="M372.63,163.03c0-11.28,8.87-18.06,18.33-18.06,10.8,0,16.56,7.1,16.56,16.51,0,1.81-.28,3.59-.42,4.46h-27.15v-6.58h20.5l-1.63,1.91c0-5.86-2.67-8.9-7.53-8.9-5.34,0-9.01,3.59-9.01,10.66s4.23,10.69,11.21,10.69c3.33,0,6.16-.9,9.29-2.5l3.31,5.88c-3.97,2.5-9.11,4.04-13.95,4.04-10.96,0-19.5-6.64-19.5-18.11Z"/>
    <path class="cls-4" d="M412.72,163.08c0-11.5,9.48-18.11,20.33-18.11,5.59,0,10.23,1.97,13.17,4.73l-4.6,6.03c-2.72-1.97-5.26-2.91-8.04-2.91-6.32,0-10.69,4.04-10.69,10.26s4.29,10.21,10.36,10.21c3.79,0,6.9-1.62,9.48-3.41l4.04,6.15c-4.21,3.48-9.58,5.12-14.45,5.12-11.12,0-19.61-6.62-19.61-18.06Z"/>
    <path class="cls-4" d="M458.38,166.11v-12.68h-9.03v-7.24l9.47-.39,1.28-10.61h8.22v10.61h15.17v7.63h-15.17v12.58c0,5.36,2.25,7.48,7.6,7.48,2.71,0,5.01-.54,7.15-1.27l1.83,7.03c-3.14.94-6.81,1.89-11.48,1.89-11.12,0-15.04-6.04-15.04-15.03Z"/>
    <path class="cls-4" d="M486.99,163.08c0-11.5,8.62-18.11,17.94-18.11s17.94,6.62,17.94,18.11-8.62,18.06-17.94,18.06-17.94-6.62-17.94-18.06ZM512.69,163.08c0-6.22-2.71-10.26-7.76-10.26s-7.76,4.04-7.76,10.26,2.71,10.21,7.76,10.21,7.76-4.01,7.76-10.21Z"/>
    <path class="cls-4" d="M527.79,145.8h8.17l.8,7.62h.23c3.5-5.64,8.74-8.46,14.49-8.46,3.02,0,4.75.48,6.8,1.39l-2.03,8.17c-2.25-.68-3.66-1.03-6.29-1.03-4.48,0-9.05,2.27-12.24,8.59v18.21h-9.94v-34.5Z"/>
  </g>
  <path class="cls-4" d="M61.64,184.82c-8,0-15.8-1.52-23.19-4.52-7.66-3.11-14.52-7.66-20.4-13.54-5.88-5.88-10.43-12.74-13.54-20.4-3-7.39-4.52-15.19-4.52-23.19s1.52-15.8,4.52-23.19c3.11-7.66,7.66-14.52,13.54-20.4,5.88-5.88,12.74-10.43,20.4-13.54,7.39-3,15.19-4.52,23.19-4.52s15.8,1.52,23.19,4.52c7.66,3.11,14.52,7.66,20.4,13.54,5.88,5.88,10.43,12.74,13.54,20.4,3,7.39,4.52,15.19,4.52,23.19s-1.52,15.8-4.52,23.19c-3.11,7.66-7.66,14.52-13.54,20.4-5.88,5.88-12.74,10.43-20.4,13.54-7.39,3-15.19,4.52-23.19,4.52ZM61.64,98.8c-6.51,0-12.63,2.54-17.23,7.14-4.6,4.6-7.14,10.72-7.14,17.23s2.54,12.63,7.14,17.23c4.6,4.6,10.72,7.14,17.23,7.14s12.63-2.54,17.23-7.14c4.6-4.6,7.14-10.72,7.14-17.23s-2.54-12.63-7.14-17.23c-4.6-4.6-10.72-7.14-17.23-7.14Z"/>
  <path class="cls-1" d="M166.76,18.06C155.12,6.41,139.64,0,123.17,0s-31.95,6.41-43.59,18.06l-35.98,35.98-25.54,25.54c5.88-5.87,12.74-10.43,20.39-13.53,1.85-.75,3.72-1.41,5.62-1.97,1.12-.33,2.25-.62,3.38-.89,4.63-1.09,9.37-1.66,14.19-1.66s9.92.59,14.71,1.77c2.74.67,5.44,1.55,8.09,2.6l7.46-7.46,14.02-14.02c4.6-4.6,10.72-7.14,17.23-7.14s12.63,2.54,17.23,7.14c4.6,4.6,7.14,10.72,7.14,17.23s-2.54,12.63-7.14,17.23l-14.02,14.02c.52,1.12,1.02,2.25,1.48,3.4,3.47,8.57,5.23,17.61,5.23,26.87,0,6.14-.79,12.18-2.32,18.04l35.98-35.98c11.64-11.64,18.06-27.12,18.06-43.59s-6.41-31.95-18.06-43.59Z"/>
</svg>