<?xml version="1.0" encoding="UTF-8"?>
<svg id="Layer_1" data-name="Layer 1" xmlns="http://www.w3.org/2000/svg" xmlns:xlink="http://www.w3.org/1999/xlink" viewBox="0 0 1000 138.59">
  <defs>
    <style>
      .cls-1 {
        fill-rule: evenodd;
      }

      .cls-1, .cls-2 {
        fill: #fff;
      }

      .cls-3 {
        fill: url(#linear-gradient);
      }
    </style>
    <linearGradient id="linear-gradient" x1="13.55" y1="52.95" x2="138.59" y2="52.95" gradientUnits="userSpaceOnUse">
      <stop offset=".44" stop-color="#fff"/>
      <stop offset=".65" stop-color="#fff" stop-opacity=".75"/>
      <stop offset=".89" stop-color="#fff" stop-opacity=".5"/>
      <stop offset="1" stop-color="#fff" stop-opacity=".4"/>
    </linearGradient>
  </defs>
  <g>
    <g>
      <path class="cls-2" d="M752.49,47.64c.47,0,.89-.02,1.27-.07.38-.05.74-.12,1.07-.21.33-.09.64-.21.94-.34.3-.13.6-.29.9-.45v-3.57h-2.61c-.07,0-.13-.02-.18-.07-.05-.04-.07-.09-.07-.15v-.52h3.75v4.71c-.34.23-.69.44-1.05.62-.36.18-.75.33-1.17.45-.41.12-.86.22-1.34.28s-1,.1-1.57.1c-.98,0-1.87-.16-2.68-.48-.81-.32-1.5-.78-2.08-1.37-.58-.59-1.03-1.3-1.35-2.14-.32-.84-.48-1.77-.48-2.79s.16-1.95.48-2.79.77-1.54,1.36-2.13c.59-.59,1.3-1.05,2.14-1.37.84-.32,1.78-.48,2.82-.48.52,0,.99.03,1.43.1.44.07.84.17,1.22.3.38.13.73.3,1.05.5.33.2.64.42.94.68l-.26.41c-.06.09-.14.14-.24.14-.06,0-.11-.01-.16-.04-.1-.04-.23-.12-.42-.26-.18-.14-.43-.28-.74-.43-.31-.15-.7-.28-1.16-.4-.47-.12-1.03-.18-1.7-.18-.88,0-1.68.14-2.39.41-.71.27-1.31.67-1.81,1.18-.5.51-.89,1.14-1.16,1.87-.27.74-.41,1.56-.41,2.48s.14,1.78.41,2.52.66,1.37,1.15,1.89c.49.51,1.09.91,1.78,1.18s1.46.41,2.29.41Z"/>
      <path class="cls-2" d="M763.99,38.81c.68,0,1.29.11,1.83.34.54.23.99.55,1.37.97.37.42.65.92.85,1.51s.29,1.25.29,1.98-.1,1.39-.29,1.98-.48,1.09-.85,1.51c-.37.42-.83.74-1.37.96-.54.22-1.15.34-1.83.34s-1.3-.11-1.83-.34c-.54-.22-1-.55-1.37-.96-.37-.42-.66-.92-.85-1.51-.2-.59-.29-1.25-.29-1.98s.1-1.39.29-1.98c.19-.59.48-1.09.85-1.51.37-.42.83-.74,1.37-.97.54-.23,1.15-.34,1.83-.34ZM763.99,47.69c.57,0,1.06-.1,1.49-.29.42-.19.78-.46,1.06-.82s.5-.78.64-1.29c.14-.5.21-1.07.21-1.69s-.07-1.18-.21-1.68c-.14-.51-.35-.94-.64-1.3s-.64-.64-1.06-.83c-.43-.19-.92-.29-1.49-.29s-1.07.1-1.49.29-.78.47-1.06.83c-.28.36-.5.79-.64,1.3s-.22,1.07-.22,1.68.07,1.19.22,1.69c.14.5.36.93.64,1.29.28.36.64.63,1.06.82s.92.29,1.49.29Z"/>
      <path class="cls-2" d="M771.71,34.65v13.62h-.91v-13.62h.91Z"/>
      <path class="cls-2" d="M781.65,48.27c-.16,0-.25-.08-.27-.24l-.1-1.47c-.42.56-.92,1.01-1.48,1.34-.57.33-1.2.5-1.9.5-1.17,0-2.08-.4-2.74-1.19-.66-.79-.98-1.98-.98-3.57,0-.68.09-1.32.27-1.91.18-.59.45-1.1.81-1.54.35-.43.79-.78,1.3-1.03.51-.25,1.11-.37,1.78-.37s1.21.12,1.68.35c.47.23.88.58,1.23,1.03v-5.52h.91v13.62h-.5ZM778.15,47.67c.63,0,1.21-.16,1.72-.48.51-.32.97-.76,1.37-1.33v-4.92c-.37-.53-.78-.9-1.22-1.12-.44-.22-.95-.33-1.51-.33s-1.06.1-1.48.3c-.42.2-.78.48-1.06.85s-.5.8-.64,1.31c-.14.51-.22,1.07-.22,1.68,0,1.39.26,2.4.79,3.06.52.65,1.28.98,2.26.98Z"/>
      <path class="cls-2" d="M795.69,36.63c-.06.11-.14.16-.25.16-.08,0-.19-.06-.32-.17-.13-.12-.31-.24-.53-.38-.22-.14-.5-.27-.84-.39-.34-.12-.75-.18-1.24-.18s-.93.07-1.3.21c-.37.14-.69.32-.94.56-.25.24-.45.51-.58.82-.13.31-.2.64-.2.98,0,.45.1.82.29,1.11s.45.54.77.75c.32.21.68.38,1.09.52.41.14.82.28,1.25.42.43.14.85.29,1.25.45s.77.37,1.09.62c.32.25.58.56.77.92.19.37.29.82.29,1.36s-.1,1.08-.29,1.57c-.19.49-.48.92-.85,1.28-.37.36-.82.65-1.36.86-.54.21-1.15.31-1.84.31-.89,0-1.66-.15-2.31-.46-.65-.31-1.21-.73-1.7-1.27l.27-.41c.08-.09.17-.14.27-.14.06,0,.13.04.22.11.09.08.2.17.33.28s.28.23.46.36c.18.13.39.25.62.36s.51.2.82.28c.31.07.66.11,1.05.11.54,0,1.02-.08,1.44-.24.42-.16.78-.38,1.07-.65s.51-.6.67-.98c.15-.38.23-.78.23-1.21,0-.47-.1-.85-.29-1.16s-.45-.56-.77-.76c-.32-.2-.68-.37-1.09-.51-.41-.14-.82-.27-1.25-.4-.43-.13-.85-.28-1.25-.44-.41-.16-.77-.37-1.09-.62-.32-.25-.58-.57-.77-.95s-.29-.85-.29-1.42c0-.44.09-.87.26-1.28.17-.41.43-.78.76-1.09.33-.32.74-.57,1.23-.76.49-.19,1.05-.29,1.67-.29.7,0,1.33.11,1.89.33.56.22,1.07.55,1.53,1l-.23.43Z"/>
      <path class="cls-2" d="M798.48,51.57v-12.61h.5c.08,0,.15.02.2.05.05.03.08.1.09.18l.09,1.44c.42-.56.92-1.01,1.48-1.34s1.2-.5,1.9-.5c1.17,0,2.09.4,2.74,1.19.65.79.98,1.98.98,3.57,0,.68-.09,1.32-.27,1.91-.18.59-.45,1.1-.8,1.54-.35.43-.78.78-1.3,1.03-.51.25-1.11.37-1.78.37s-1.21-.12-1.69-.35c-.47-.23-.88-.57-1.23-1.03v4.55h-.91ZM802.48,39.52c-.63,0-1.21.16-1.72.48-.51.32-.97.77-1.37,1.34v4.89c.36.54.77.91,1.21,1.13.44.22.95.33,1.52.33s1.05-.1,1.48-.3c.42-.2.77-.48,1.06-.85.28-.37.5-.8.64-1.31.14-.51.22-1.07.22-1.68,0-1.39-.26-2.4-.78-3.06-.52-.65-1.27-.98-2.26-.98Z"/>
      <path class="cls-2" d="M812.17,38.81c.68,0,1.3.11,1.83.34.54.23.99.55,1.36.97.37.42.65.92.85,1.51.19.59.29,1.25.29,1.98s-.1,1.39-.29,1.98c-.2.59-.48,1.09-.85,1.51-.37.42-.83.74-1.36.96-.54.22-1.15.34-1.83.34s-1.29-.11-1.83-.34c-.54-.22-1-.55-1.37-.96-.37-.42-.66-.92-.85-1.51s-.29-1.25-.29-1.98.1-1.39.29-1.98.48-1.09.85-1.51c.37-.42.83-.74,1.37-.97.54-.23,1.15-.34,1.83-.34ZM812.17,47.69c.57,0,1.07-.1,1.49-.29s.78-.46,1.06-.82c.28-.36.5-.78.64-1.29.14-.5.21-1.07.21-1.69s-.07-1.18-.21-1.68c-.14-.51-.35-.94-.64-1.3-.28-.36-.64-.64-1.06-.83s-.92-.29-1.49-.29-1.06.1-1.49.29-.78.47-1.06.83c-.28.36-.5.79-.64,1.3-.14.51-.22,1.07-.22,1.68s.07,1.19.22,1.69c.14.5.36.93.64,1.29.28.36.64.63,1.06.82s.92.29,1.49.29Z"/>
      <path class="cls-2" d="M818.71,48.27v-9.32h.5c.17,0,.26.08.29.23l.09,1.4c.43-.54.94-.97,1.52-1.3.58-.33,1.22-.49,1.93-.49.52,0,.98.08,1.38.24.4.16.73.4.99.7s.46.67.59,1.1c.13.43.2.92.2,1.46v5.95h-.91v-5.95c0-.87-.2-1.56-.61-2.06-.41-.5-1.03-.74-1.88-.74-.63,0-1.21.16-1.74.47-.54.32-1.02.75-1.44,1.3v6.98h-.91Z"/>
      <path class="cls-2" d="M834.14,40.12c-.04.09-.11.13-.21.13-.07,0-.16-.04-.27-.12-.11-.08-.26-.17-.44-.26-.18-.1-.41-.18-.67-.26-.26-.08-.59-.12-.97-.12-.34,0-.66.05-.94.15-.28.1-.53.23-.73.39-.2.16-.36.35-.47.57s-.17.44-.17.68c0,.29.08.54.23.73.15.19.35.36.6.49.25.14.53.26.85.35s.64.2.97.3c.33.1.66.21.97.33.32.12.6.27.85.45.25.18.45.4.6.66.15.26.23.58.23.95,0,.41-.08.78-.22,1.13-.15.35-.37.65-.65.91-.28.26-.63.46-1.05.61-.41.15-.89.22-1.42.22-.67,0-1.25-.1-1.73-.31-.49-.21-.92-.48-1.3-.82l.22-.32s.07-.09.11-.11.09-.04.16-.04c.08,0,.19.05.31.15.12.1.28.21.47.32s.44.22.73.32.65.15,1.08.15c.4,0,.76-.05,1.06-.16.31-.11.56-.26.77-.44.2-.19.36-.41.46-.66.11-.25.16-.52.16-.8,0-.31-.08-.57-.23-.78-.15-.21-.35-.38-.6-.52-.25-.14-.53-.27-.85-.37-.32-.1-.64-.2-.98-.3s-.66-.21-.98-.33c-.32-.12-.6-.27-.85-.45-.25-.18-.45-.4-.6-.66s-.23-.58-.23-.97c0-.33.07-.65.22-.95.15-.31.36-.57.63-.81.27-.23.6-.41.99-.55s.83-.21,1.31-.21c.58,0,1.1.08,1.55.25.45.16.86.42,1.24.76l-.2.31Z"/>
      <path class="cls-2" d="M840.57,38.81c.68,0,1.3.11,1.83.34.54.23.99.55,1.36.97.37.42.65.92.85,1.51.19.59.29,1.25.29,1.98s-.1,1.39-.29,1.98c-.2.59-.48,1.09-.85,1.51-.37.42-.83.74-1.36.96-.54.22-1.15.34-1.83.34s-1.29-.11-1.83-.34c-.54-.22-1-.55-1.37-.96-.37-.42-.66-.92-.85-1.51s-.29-1.25-.29-1.98.1-1.39.29-1.98.48-1.09.85-1.51c.37-.42.83-.74,1.37-.97.54-.23,1.15-.34,1.83-.34ZM840.57,47.69c.57,0,1.07-.1,1.49-.29s.78-.46,1.06-.82c.28-.36.5-.78.64-1.29.14-.5.21-1.07.21-1.69s-.07-1.18-.21-1.68c-.14-.51-.35-.94-.64-1.3-.28-.36-.64-.64-1.06-.83s-.92-.29-1.49-.29-1.06.1-1.49.29-.78.47-1.06.83c-.28.36-.5.79-.64,1.3-.14.51-.22,1.07-.22,1.68s.07,1.19.22,1.69c.14.5.36.93.64,1.29.28.36.64.63,1.06.82s.92.29,1.49.29Z"/>
      <path class="cls-2" d="M847.11,48.27v-9.32h.48c.11,0,.19.02.23.07.05.04.07.12.08.22l.08,1.97c.31-.76.72-1.35,1.23-1.77.51-.43,1.14-.64,1.89-.64.29,0,.55.03.79.09.24.06.47.15.69.26l-.12.62c-.02.1-.08.15-.19.15-.04,0-.09-.01-.16-.04-.07-.02-.16-.05-.26-.08-.11-.03-.23-.06-.39-.08-.15-.03-.33-.04-.53-.04-.72,0-1.31.22-1.78.66-.46.44-.84,1.07-1.13,1.89v6.06h-.91Z"/>
    </g>
    <path class="cls-1" d="M759.84,80.79l5.18,11.57h-10.54l5.14-11.57h.21ZM758.87,72.89l-12.94,28.43c-.25.55.08,1.1.72,1.1h2.65c.51,0,.84-.34.97-.63.42-.97.85-1.93,1.29-2.89h0c.43-.96.86-1.92,1.29-2.89h13.78l2.61,5.79c.17.38.46.63.97.63h2.66c.63,0,.97-.55.72-1.1l-12.86-28.43c-.13-.25-.51-.46-.72-.46h-.42c-.21,0-.59.21-.72.46ZM800.85,76.35c-2.87-2.49-5.94-3.93-10.2-3.93-8.43,0-15.22,6.8-15.22,15.25s6.79,15.16,15.22,15.16c3.75,0,7.38-1.31,10.24-4.1.3-.3.38-.84.04-1.14l-1.94-1.9c-.25-.21-.63-.25-1.01.04-2.02,1.56-4.17,2.79-7.25,2.79-6.03,0-10.62-5.03-10.62-10.94s4.55-10.98,10.58-10.98c2.61,0,5.31,1.1,7.29,2.83.38.38.76.38,1.05,0l1.85-1.9c.34-.34.34-.84-.04-1.18ZM817.7,98.31c5.91,0,10.7-4.8,10.7-10.73s-4.79-10.73-10.7-10.73-10.7,4.8-10.7,10.73,4.79,10.73,10.7,10.73ZM817.7,102.64c3.37,0,6.48-1.11,8.99-2.99l3.68,3.69c.81.81,2.11.81,2.92,0,.81-.81.81-2.12,0-2.93l-3.66-3.67c1.94-2.54,3.1-5.71,3.1-9.16,0-8.31-6.73-15.05-15.02-15.05s-15.02,6.74-15.02,15.05,6.73,15.05,15.02,15.05ZM838.5,73.65c0-.42.38-.8.8-.8h2.82c.46,0,.8.38.8.8v17.44c0,4.22,2.7,7.52,7,7.52s7.08-3.25,7.08-7.43v-17.53c0-.42.34-.8.8-.8h2.83c.42,0,.8.38.8.8v17.74c0,6.42-4.85,11.45-11.51,11.45s-11.42-5.03-11.42-11.45v-17.74ZM869.18,72.85c-.42,0-.8.38-.8.8v27.96c0,.42.38.8.8.8h2.78c.42,0,.8-.38.8-.8v-27.96c0-.42-.38-.8-.8-.8h-2.78ZM892.2,87.21c2.74,0,5.14-2.32,5.14-5.24,0-2.75-2.4-5.03-5.14-5.03h-7.5v10.26h7.5ZM880.28,73.65c0-.42.33-.8.8-.8h11.47c5.06,0,9.19,4.01,9.19,9.04,0,3.89-2.57,7.1-6.24,8.57l5.77,10.73c.3.55,0,1.23-.72,1.23h-3.29c-.34,0-.59-.21-.67-.38l-5.61-11.19h-6.37v10.77c0,.42-.38.8-.8.8h-2.74c-.46,0-.8-.38-.8-.8v-27.96ZM907.76,72.85c-.46,0-.8.38-.8.8v27.96c0,.42.34.8.8.8h16.86c.46,0,.8-.38.8-.8v-2.32c0-.42-.34-.8-.8-.8h-13.32v-9.08h11.25c.42,0,.8-.34.8-.8v-2.37c0-.42-.38-.8-.8-.8h-11.25v-8.62h13.32c.46,0,.8-.38.8-.8v-2.37c0-.42-.34-.8-.8-.8h-16.86ZM940.98,98.4c6.2,0,10.71-4.56,10.71-10.81s-4.51-10.73-10.71-10.73h-5.57v21.54h5.57ZM931.12,73.65c0-.42.34-.8.76-.8h9.69c8.14,0,14.8,6.63,14.8,14.74s-6.66,14.83-14.8,14.83h-9.69c-.42,0-.76-.38-.76-.8v-27.96ZM987.05,89.59h2.34l4.06,9.92h.15l4.06-9.92h2.34v12.76h-1.83v-9.23h-.12l-3.76,9.21h-1.52l-3.76-9.22h-.12v9.24h-1.83v-12.76ZM983.91,99.48c.5-.98.75-2.15.75-3.51s-.25-2.53-.75-3.51c-.5-.98-1.18-1.73-2.05-2.26-.86-.53-1.85-.79-2.95-.79s-2.09.26-2.96.79c-.86.52-1.54,1.27-2.04,2.26-.5.98-.75,2.15-.75,3.51s.25,2.53.75,3.51c.5.98,1.18,1.73,2.04,2.26.87.52,1.85.78,2.96.78s2.08-.26,2.95-.78c.87-.53,1.55-1.28,2.05-2.26ZM982.24,93.35c.34.71.51,1.58.51,2.62s-.17,1.91-.51,2.63c-.33.71-.79,1.25-1.37,1.62-.58.37-1.23.55-1.96.55s-1.39-.18-1.97-.55c-.58-.37-1.03-.91-1.37-1.62-.33-.71-.5-1.59-.5-2.63s.17-1.91.5-2.62c.34-.71.79-1.25,1.37-1.62.58-.37,1.23-.55,1.97-.55s1.38.18,1.96.55c.58.37,1.04.91,1.37,1.62ZM971.27,93.74h-1.94c-.07-.42-.21-.78-.42-1.1s-.45-.58-.75-.8c-.3-.22-.63-.39-.99-.5-.36-.11-.75-.17-1.15-.17-.73,0-1.39.18-1.97.55-.58.37-1.04.91-1.37,1.63-.33.71-.5,1.59-.5,2.62s.17,1.91.5,2.63c.34.71.8,1.25,1.38,1.62.58.37,1.24.55,1.96.55.4,0,.79-.05,1.15-.16.37-.11.7-.28.99-.49.3-.22.54-.48.75-.79.21-.32.35-.68.43-1.08h1.94c-.1.63-.3,1.21-.6,1.74-.29.52-.67.98-1.14,1.36-.46.38-.99.67-1.58.88s-1.24.31-1.94.31c-1.1,0-2.09-.26-2.95-.78-.86-.53-1.54-1.28-2.04-2.26-.49-.98-.74-2.15-.74-3.51s.25-2.53.75-3.51c.5-.98,1.18-1.73,2.04-2.26.86-.53,1.85-.79,2.95-.79.68,0,1.31.1,1.89.29.59.19,1.12.47,1.59.85.47.37.86.82,1.17,1.36.31.53.51,1.14.62,1.83ZM955.9,102.11c.25.24.54.36.88.36.23,0,.44-.06.62-.17.19-.11.34-.26.45-.45.12-.19.17-.4.17-.63,0-.34-.12-.63-.37-.87-.25-.24-.54-.37-.88-.37s-.63.12-.88.37c-.24.24-.37.53-.37.87s.12.64.37.88Z"/>
  </g>
  <g>
    <path class="cls-2" d="M160.64,20.28c0-11.35,5.7-17.52,13.96-17.52s13.96,6.17,13.96,17.52-5.7,17.83-13.96,17.83-13.96-6.23-13.96-17.83ZM180.89,20.28c0-7.27-2.45-11.2-6.29-11.2s-6.29,3.93-6.29,11.2,2.45,11.52,6.29,11.52,6.29-3.99,6.29-11.52Z"/>
    <path class="cls-2" d="M192.48,11.61h6.08l.54,2.71h.19c2.17-1.95,5.15-3.34,8.04-3.34,6.67,0,10.65,5.17,10.65,13.17,0,8.86-5.56,13.96-11.55,13.96-2.34,0-4.73-1.04-6.67-2.86h-.17l.35,4.28v7.71h-7.45V11.61ZM210.36,24.21c0-4.77-1.63-7.26-5.2-7.26-1.76,0-3.45.75-5.23,2.57v10.73c1.6,1.38,3.41,1.87,4.84,1.87,3.11,0,5.59-2.44,5.59-7.92Z"/>
    <path class="cls-2" d="M221.46,24.53c0-8.46,6.65-13.55,13.74-13.55,8.1,0,12.42,5.32,12.42,12.38,0,1.36-.21,2.7-.32,3.34h-20.36v-4.93h15.37l-1.22,1.43c0-4.39-2-6.68-5.64-6.68-4,0-6.75,2.69-6.75,8s3.17,8.01,8.4,8.01c2.49,0,4.62-.68,6.97-1.88l2.49,4.41c-2.97,1.87-6.83,3.03-10.46,3.03-8.22,0-14.63-4.98-14.63-13.58Z"/>
    <path class="cls-2" d="M251.04,11.61h6.08l.54,3.56h.21c2.36-2.27,5.28-4.19,9.25-4.19,6.02,0,8.68,3.95,8.68,10.51v15.99h-7.45v-15.05c0-3.62-1.1-5.24-4.14-5.24-2.22,0-3.73,1.02-5.71,2.93v17.36h-7.45V11.61Z"/>
    <path class="cls-2" d="M162.66,52.51h11.51c7.24,0,12.68,1.99,12.68,8.43,0,3.1-1.88,6.33-5.98,7.38v.21c5,.88,7.66,3.47,7.66,8.04,0,6.91-5.76,10.04-13.38,10.04h-12.48v-34.1ZM173.76,66.28c4.1,0,5.79-1.62,5.79-4.34s-1.83-3.71-5.71-3.71h-3.72v8.06h3.64ZM174.5,80.9c4.5,0,6.73-1.57,6.73-4.87s-2.17-4.44-6.73-4.44h-4.38v9.31h4.38Z"/>
    <path class="cls-2" d="M191.37,79.49c0-5.8,4.98-8.73,17.63-9.52-.26-2.46-2.04-4.06-5.78-4.06-2.66,0-5.3,1.04-8.21,2.5l-2.68-4.78c3.56-2,7.81-3.53,12.32-3.53,7.42,0,11.81,3.83,11.81,11.58v14.92h-6.1l-.54-2.99h-.19c-2.7,2-6.07,3.62-9.51,3.62-5.31,0-8.75-3.36-8.75-7.74ZM209,78.94v-4.54c-8.22.44-10.47,2.15-10.47,4.51,0,1.82,1.59,2.67,3.91,2.67,2.43,0,4.55-1.09,6.56-2.64Z"/>
    <path class="cls-2" d="M221.39,60.73h6.08l.54,3.56h.21c2.36-2.27,5.28-4.19,9.25-4.19,6.02,0,8.68,3.95,8.68,10.51v15.99h-7.45v-15.05c0-3.62-1.1-5.24-4.14-5.24-2.22,0-3.73,1.02-5.71,2.93v17.36h-7.45v-25.87Z"/>
    <path class="cls-2" d="M251.04,49.91h7.45v21.61h.21l10.27-10.78h8.16l-18.65,19.3v6.57h-7.45v-36.7ZM261.96,74.64l4.3-4.54,11.8,16.51h-8.1l-8-11.97Z"/>
    <path class="cls-2" d="M288.3,66.45h-10.12v-5.72h17.58v25.87h-7.45v-20.15ZM286.64,51.99c0-2.71,2.11-4.6,5.02-4.6s5.02,1.89,5.02,4.6-2.11,4.54-5.02,4.54-5.02-1.8-5.02-4.54Z"/>
    <path class="cls-2" d="M302.5,60.73h6.08l.54,3.56h.21c2.36-2.27,5.28-4.19,9.25-4.19,6.02,0,8.68,3.95,8.68,10.51v15.99h-7.45v-15.05c0-3.62-1.1-5.24-4.14-5.24-2.22,0-3.73,1.02-5.71,2.93v17.36h-7.45v-25.87Z"/>
    <path class="cls-2" d="M330.84,91.03c0-2.11,1.43-3.88,4.14-5.25v-.21c-1.46-.86-2.68-2.2-2.68-4.38,0-1.72,1.26-3.58,3.17-4.86v-.21c-1.93-1.27-3.48-3.62-3.48-6.65,0-6.14,5.28-9.36,11.23-9.36,1.57,0,3.03.21,4.29.63h10.79v5.39h-5.52c.67.84,1.28,2.19,1.28,3.6,0,5.9-4.74,8.7-10.84,8.7-1.1,0-2.4-.18-3.74-.58-.88.59-1.29,1.13-1.29,2.03,0,1.46,1.47,2.07,4.62,2.07h5.02c6.92,0,10.68,1.87,10.68,6.49,0,5.32-6.09,9.29-15.66,9.29-6.99,0-12.02-2.07-12.02-6.69ZM351.41,89.68c0-1.74-1.67-2.13-4.82-2.13h-3.56c-1.87,0-3.04-.1-4.03-.35-1.48.88-2.06,1.75-2.06,2.75,0,2.04,2.64,3.12,6.95,3.12s7.52-1.5,7.52-3.38ZM347.49,69.47c0-2.83-1.93-4.44-4.26-4.44s-4.23,1.61-4.23,4.44,1.92,4.52,4.23,4.52,4.26-1.59,4.26-4.52Z"/>
    <path class="cls-2" d="M161.52,118.33c0-11.26,7.22-17.84,16.54-17.84,4.4,0,7.98,2.05,10.31,4.32l-4.13,4.52c-1.68-1.55-3.61-2.52-6.18-2.52-5.16,0-8.87,4.25-8.87,11.29s3.71,11.43,9.14,11.43c2.6,0,4.72-1.23,6.48-3.1l4.13,4.42c-2.83,3.27-6.68,5-11.37,5-8.67,0-16.05-6.06-16.05-17.51Z"/>
    <path class="cls-2" d="M190.57,122.29c0-8.62,6.47-13.58,13.45-13.58s13.45,4.96,13.45,13.58-6.47,13.55-13.45,13.55-13.45-4.96-13.45-13.55ZM209.84,122.29c0-4.66-2.03-7.69-5.82-7.69s-5.82,3.03-5.82,7.69,2.03,7.65,5.82,7.65,5.82-3.01,5.82-7.65Z"/>
    <path class="cls-2" d="M221.39,109.34h6.08l.54,3.56h.21c2.36-2.27,5.28-4.19,9.25-4.19,6.02,0,8.68,3.95,8.68,10.51v15.99h-7.45v-15.05c0-3.62-1.1-5.24-4.14-5.24-2.22,0-3.73,1.02-5.71,2.93v17.36h-7.45v-25.87Z"/>
    <path class="cls-2" d="M250.81,109.34h6.08l.54,3.56h.21c2.36-2.27,5.28-4.19,9.25-4.19,6.02,0,8.68,3.95,8.68,10.51v15.99h-7.45v-15.05c0-3.62-1.1-5.24-4.14-5.24-2.22,0-3.73,1.02-5.71,2.93v17.36h-7.45v-25.87Z"/>
    <path class="cls-2" d="M279.27,122.26c0-8.46,6.65-13.55,13.74-13.55,8.1,0,12.42,5.32,12.42,12.38,0,1.36-.21,2.7-.32,3.34h-20.36v-4.93h15.37l-1.22,1.43c0-4.39-2-6.68-5.64-6.68-4,0-6.75,2.69-6.75,8s3.17,8.01,8.41,8.01c2.49,0,4.62-.68,6.97-1.88l2.49,4.41c-2.97,1.87-6.83,3.03-10.46,3.03-8.22,0-14.63-4.98-14.63-13.58Z"/>
    <path class="cls-2" d="M309.33,122.29c0-8.62,7.11-13.58,15.24-13.58,4.19,0,7.67,1.47,9.88,3.55l-3.45,4.52c-2.04-1.48-3.95-2.18-6.03-2.18-4.74,0-8.01,3.03-8.01,7.69s3.22,7.65,7.77,7.65c2.84,0,5.17-1.21,7.11-2.56l3.03,4.61c-3.16,2.61-7.18,3.84-10.83,3.84-8.34,0-14.7-4.96-14.7-13.55Z"/>
    <path class="cls-2" d="M343.58,124.57v-9.51h-6.77v-5.43l7.1-.29.96-7.96h6.16v7.96h11.38v5.72h-11.38v9.43c0,4.02,1.69,5.61,5.7,5.61,2.03,0,3.76-.4,5.36-.95l1.37,5.27c-2.35.7-5.11,1.42-8.61,1.42-8.34,0-11.28-4.53-11.28-11.27Z"/>
    <path class="cls-2" d="M365.03,122.29c0-8.62,6.47-13.58,13.45-13.58s13.45,4.96,13.45,13.58-6.47,13.55-13.45,13.55-13.45-4.96-13.45-13.55ZM384.3,122.29c0-4.66-2.03-7.69-5.82-7.69s-5.82,3.03-5.82,7.69,2.03,7.65,5.82,7.65,5.82-3.01,5.82-7.65Z"/>
    <path class="cls-2" d="M395.63,109.34h6.13l.6,5.71h.17c2.63-4.23,6.56-6.34,10.86-6.34,2.26,0,3.56.36,5.1,1.05l-1.53,6.13c-1.68-.51-2.75-.77-4.71-.77-3.36,0-6.78,1.7-9.18,6.44v13.66h-7.45v-25.87Z"/>
  </g>
  <g>
    <path class="cls-2" d="M474.9,34.3h17.99c20.28,0,32.46,11.33,32.46,34.05s-12.17,34.68-31.81,34.68h-18.65V34.3ZM492.15,93.12c13.12,0,20.63-7.85,20.63-24.76s-7.51-24.13-20.63-24.13h-5.02v48.9h5.02Z"/>
    <path class="cls-2" d="M530.57,77.28c0-17.25,12.31-27.14,25.92-27.14s25.92,9.89,25.92,27.14-12.31,27.01-25.92,27.01-25.92-9.89-25.92-27.01ZM569.97,77.28c0-10.38-5.05-17.23-13.48-17.23s-13.48,6.84-13.48,17.23,5.05,17.09,13.48,17.09,13.48-6.78,13.48-17.09Z"/>
    <path class="cls-2" d="M588.27,77.28c0-17.25,13.58-27.14,29.34-27.14,8.27,0,14.79,3.13,19.07,7.27l-5.74,7.62c-4.09-3.23-8.12-4.97-12.75-4.97-10.35,0-17.48,6.84-17.48,17.23s7.02,17.09,17.11,17.09c5.88,0,10.75-2.61,14.73-5.68l5.09,7.76c-5.99,5.16-13.53,7.83-20.87,7.83-16.21,0-28.5-9.89-28.5-27.01Z"/>
    <path class="cls-2" d="M640.61,96.3l5.31-7.75c6.16,4.09,13.21,6.55,21.6,6.55,7.15,0,10.51-2.73,10.51-6.15s-2.27-5.27-14.29-7.76c-13.78-2.89-19.9-7.76-19.9-15.62,0-8.97,8.18-15.43,22.62-15.43,8.55,0,16.37,3.36,21.61,6.83l-5.59,7.46c-5-3.22-10.96-5.17-17.1-5.17-6.69,0-9.46,2.58-9.46,5.74,0,3.64,3.8,4.92,13.46,7.01,16.5,3.64,20.79,8.04,20.79,16.23,0,8.88-8.56,16.05-24.25,16.05-9.64,0-18.92-3.64-25.32-7.99Z"/>
  </g>
  <g>
    <path class="cls-2" d="M46.23,138.59c-6,0-11.85-1.14-17.39-3.39-5.74-2.33-10.89-5.75-15.3-10.15-4.41-4.41-7.82-9.56-10.15-15.3-2.25-5.54-3.39-11.39-3.39-17.39s1.14-11.85,3.39-17.39c2.33-5.74,5.75-10.89,10.15-15.3,4.41-4.41,9.56-7.82,15.3-10.15,5.54-2.25,11.39-3.39,17.39-3.39s11.85,1.14,17.39,3.39c5.74,2.33,10.89,5.75,15.3,10.15,4.41,4.41,7.82,9.56,10.15,15.3,2.25,5.54,3.39,11.39,3.39,17.39s-1.14,11.85-3.39,17.39c-2.33,5.74-5.75,10.89-10.15,15.3-4.41,4.41-9.56,7.82-15.3,10.15-5.54,2.25-11.39,3.39-17.39,3.39ZM46.23,74.09c-4.88,0-9.47,1.9-12.92,5.35-3.45,3.45-5.35,8.04-5.35,12.92s1.9,9.47,5.35,12.92c3.45,3.45,8.04,5.35,12.92,5.35s9.47-1.9,12.92-5.35c3.45-3.45,5.35-8.04,5.35-12.92s-1.9-9.47-5.35-12.92c-3.45-3.45-8.04-5.35-12.92-5.35Z"/>
    <path class="cls-3" d="M125.05,13.54C116.32,4.81,104.71,0,92.37,0s-23.96,4.81-32.69,13.54l-26.98,26.98-19.15,19.15c4.41-4.41,9.55-7.82,15.29-10.15,1.39-.56,2.79-1.05,4.21-1.48.84-.25,1.69-.47,2.54-.67,3.47-.82,7.03-1.24,10.64-1.24s7.44.44,11.03,1.33c2.06.51,4.08,1.16,6.07,1.95l5.6-5.6,10.51-10.51c3.45-3.45,8.04-5.35,12.92-5.35s9.47,1.9,12.92,5.35c3.45,3.45,5.35,8.04,5.35,12.92s-1.9,9.47-5.35,12.92l-10.51,10.51c.39.84.76,1.69,1.11,2.55,2.6,6.42,3.93,13.2,3.93,20.15,0,4.6-.59,9.13-1.74,13.53l26.98-26.98c8.73-8.73,13.54-20.34,13.54-32.69s-4.81-23.96-13.54-32.69Z"/>
  </g>
</svg>